<svg width="64" height="64" viewBox="0 0 64 64" fill="none" xmlns="http://www.w3.org/2000/svg">
<path d="M32 2.66666C24.3026 2.58844 16.889 5.56962 11.3886 10.955C5.88825 16.3404 2.75111 23.6893 2.66669 31.3867C2.69635 37.4698 4.6532 43.387 8.25619 48.2884C11.8592 53.1898 16.9229 56.8232 22.72 58.6667C24.1867 58.9333 24.72 58.0533 24.72 57.28V52.4C16.56 54.1333 14.8267 48.56 14.8267 48.56C14.2835 46.8104 13.1286 45.3148 11.5734 44.3467C8.90669 42.5867 11.7867 42.6133 11.7867 42.6133C12.7084 42.7366 13.5903 43.0669 14.3662 43.5795C15.1421 44.0921 15.7918 44.7738 16.2667 45.5733C17.0942 47.0083 18.4521 48.061 20.048 48.5049C21.644 48.9488 23.3504 48.7483 24.8 47.9467C24.9491 46.4863 25.6104 45.126 26.6667 44.1067C20.16 43.3867 13.3334 40.9333 13.3334 29.92C13.2752 27.0471 14.3367 24.2643 16.2934 22.16C15.4022 19.6935 15.5074 16.9768 16.5867 14.5867C16.5867 14.5867 19.0667 13.8133 24.5867 17.52C29.3917 16.2396 34.4483 16.2396 39.2534 17.52C44.8534 13.8133 47.2534 14.5867 47.2534 14.5867C48.3326 16.9768 48.4378 19.6935 47.5467 22.16C49.5488 24.2257 50.6679 26.9899 50.6667 29.8667C50.6667 40.9067 43.7867 43.3333 37.3334 44.0533C38.04 44.7394 38.5858 45.5735 38.9316 46.4956C39.2774 47.4178 39.4146 48.4051 39.3334 49.3867V57.2533C39.3334 58.1867 39.8667 58.9333 41.3334 58.64C47.114 56.7851 52.1607 53.1508 55.7525 48.2564C59.3444 43.3619 61.2976 37.4576 61.3334 31.3867C61.2489 23.6893 58.1118 16.3404 52.6114 10.955C47.111 5.56962 39.6975 2.58844 32 2.66666Z" fill="#B1B1B8"/>
</svg>
