<svg width="84" height="84" viewBox="0 0 84 84" fill="none" xmlns="http://www.w3.org/2000/svg">
<path d="M42 3.50002C31.8971 3.39736 22.1668 7.31014 14.9476 14.3785C7.7283 21.4468 3.61081 31.0922 3.5 41.195C3.53893 49.1791 6.1073 56.9454 10.8362 63.3785C15.5651 69.8116 22.2113 74.5804 29.82 77C31.745 77.35 32.445 76.195 32.445 75.18V68.775C21.735 71.05 19.46 63.735 19.46 63.735C18.747 61.4387 17.2313 59.4757 15.19 58.205C11.69 55.895 15.47 55.93 15.47 55.93C16.6798 56.0917 17.8372 56.5253 18.8556 57.1981C19.8739 57.871 20.7267 58.7656 21.35 59.815C22.4362 61.6984 24.2184 63.0801 26.313 63.6627C28.4077 64.2453 30.6474 63.9822 32.55 62.93C32.7457 61.0134 33.6136 59.2279 35 57.89C26.46 56.945 17.5 53.725 17.5 39.27C17.4236 35.4994 18.8168 31.8469 21.385 29.085C20.2154 25.8478 20.3535 22.2821 21.77 19.145C21.77 19.145 25.025 18.13 32.27 22.995C38.5766 21.3145 45.2134 21.3145 51.52 22.995C58.87 18.13 62.02 19.145 62.02 19.145C63.4365 22.2821 63.5746 25.8478 62.405 29.085C65.0328 31.7963 66.5016 35.4243 66.5 39.2C66.5 53.69 57.47 56.875 49 57.82C49.9274 58.7205 50.6438 59.8152 51.0977 61.0256C51.5516 62.2359 51.7317 63.5318 51.625 64.82V75.145C51.625 76.37 52.325 77.35 54.25 76.965C61.8371 74.5304 68.4609 69.7605 73.1752 63.3365C77.8895 56.9125 80.4531 49.1631 80.5 41.195C80.3892 31.0922 76.2717 21.4468 69.0524 14.3785C61.8332 7.31014 52.1029 3.39736 42 3.50002Z" fill="#0064E1"/>
</svg>
