<svg width="84" height="84" viewBox="0 0 84 84" fill="none" xmlns="http://www.w3.org/2000/svg">
<path d="M42 84C65.196 84 84 65.196 84 42C84 18.804 65.196 0 42 0C18.804 0 0 18.804 0 42C0 65.196 18.804 84 42 84Z" fill="#007AB9"/>
<path d="M67.0946 45.3795V62.6952H57.0554V46.54C57.0554 42.4836 55.6059 39.7135 51.971 39.7135C49.1971 39.7135 47.5493 41.5784 46.8215 43.3843C46.5572 44.0296 46.4891 44.9258 46.4891 45.831V62.6945H36.4492C36.4492 62.6945 36.5839 35.3329 36.4492 32.5006H46.4899V36.7793C46.4696 36.813 46.4412 36.846 46.4232 36.8782H46.4899V36.7793C47.824 34.7264 50.2034 31.7916 55.5378 31.7916C62.1427 31.7916 67.0946 36.107 67.0946 45.3795ZM25.9466 17.946C22.5123 17.946 20.2655 20.2004 20.2655 23.1622C20.2655 26.0611 22.4472 28.3805 25.8148 28.3805H25.8799C29.3816 28.3805 31.5587 26.0611 31.5587 23.1622C31.4921 20.2004 29.3815 17.946 25.9466 17.946ZM20.8622 62.6952H30.8984V32.5006H20.8622V62.6952Z" fill="#F1F2F2"/>
</svg>
