<svg width="64" height="64" viewBox="0 0 64 64" fill="none" xmlns="http://www.w3.org/2000/svg">
<path d="M32 64C49.6731 64 64 49.6731 64 32C64 14.3269 49.6731 0 32 0C14.3269 0 0 14.3269 0 32C0 49.6731 14.3269 64 32 64Z" fill="#B1B1B8"/>
<path d="M51.1196 34.5749V47.7678H43.4707V35.4591C43.4707 32.3685 42.3664 30.2579 39.597 30.2579C37.4835 30.2579 36.228 31.6789 35.6735 33.0547C35.4722 33.5464 35.4203 34.2292 35.4203 34.9189V47.7673H27.7708C27.7708 47.7673 27.8735 26.9203 27.7708 24.7624H35.4208V28.0224C35.4054 28.0481 35.3838 28.0732 35.3701 28.0977H35.4208V28.0224C36.4373 26.4583 38.2502 24.2222 42.3145 24.2222C47.3468 24.2222 51.1196 27.5101 51.1196 34.5749ZM19.7688 13.6732C17.1522 13.6732 15.4404 15.3908 15.4404 17.6474C15.4404 19.8561 17.1026 21.6233 19.6684 21.6233H19.718C22.3859 21.6233 24.0447 19.8561 24.0447 17.6474C23.994 15.3908 22.3859 13.6732 19.7688 13.6732ZM15.895 47.7678H23.5416V24.7624H15.895V47.7678Z" fill="#F1F2F2"/>
</svg>
