<svg width="83" height="56" viewBox="0 0 83 56" fill="none" xmlns="http://www.w3.org/2000/svg">
<path d="M18.975 38.931C17.549 38.931 16.445 38.172 15.663 36.654L1.035 5.811C0.667 5.029 0.621 4.27 0.897 3.534C1.219 2.752 1.817 2.154 2.691 1.74C3.473 1.326 4.255 1.257 5.037 1.533C5.865 1.809 6.486 2.338 6.9 3.12L20.562 32.583H17.25L30.774 3.12C31.188 2.338 31.809 1.809 32.637 1.533C33.511 1.257 34.385 1.326 35.259 1.74C36.087 2.108 36.639 2.683 36.915 3.465C37.191 4.247 37.145 5.029 36.777 5.811L22.149 36.654C21.459 38.172 20.401 38.931 18.975 38.931ZM47.5308 55.146C46.5188 55.146 45.6678 54.801 44.9778 54.111C44.3338 53.467 44.0118 52.639 44.0118 51.627V20.163C44.0578 16.529 44.9088 13.263 46.5648 10.365C48.2208 7.467 50.4748 5.19 53.3268 3.534C56.1788 1.832 59.3988 0.981 62.9868 0.981C66.6208 0.981 69.8638 1.832 72.7158 3.534C75.5678 5.19 77.8218 7.467 79.4778 10.365C81.1798 13.263 82.0308 16.529 82.0308 20.163C82.0308 23.797 81.2488 27.063 79.6848 29.961C78.1668 32.813 76.0738 35.09 73.4058 36.792C70.7378 38.448 67.7248 39.276 64.3668 39.276C61.6528 39.276 59.1458 38.724 56.8458 37.62C54.5918 36.47 52.6598 34.929 51.0498 32.997V51.627C51.0498 52.639 50.7278 53.467 50.0838 54.111C49.4398 54.801 48.5888 55.146 47.5308 55.146ZM62.9868 33.066C65.3328 33.066 67.4258 32.514 69.2658 31.41C71.1058 30.26 72.5548 28.719 73.6128 26.787C74.7168 24.809 75.2688 22.601 75.2688 20.163C75.2688 17.679 74.7168 15.471 73.6128 13.539C72.5548 11.561 71.1058 10.02 69.2658 8.916C67.4258 7.766 65.3328 7.191 62.9868 7.191C60.6868 7.191 58.5938 7.766 56.7078 8.916C54.8678 10.02 53.4188 11.561 52.3608 13.539C51.3028 15.471 50.7738 17.679 50.7738 20.163C50.7738 22.601 51.3028 24.809 52.3608 26.787C53.4188 28.719 54.8678 30.26 56.7078 31.41C58.5938 32.514 60.6868 33.066 62.9868 33.066Z" fill="#0734A8"/>
</svg>
