<svg width="64" height="64" viewBox="0 0 64 64" fill="none" xmlns="http://www.w3.org/2000/svg">
<path d="M62.6666 39.1467L59.7426 41.364L56.8266 39.3334C56.8266 39.12 56.8266 38.8934 56.8133 38.6667C56.8133 38.4534 56.8133 38.2267 56.8 38C56.6133 32.7467 55.28 27.12 52.6133 23C50.56 19.84 47.9333 18.3334 45 18.3334C41.92 18.3334 39.4133 20.1734 36.64 24.1734C36.56 24.2934 36.4666 24.4134 36.3866 24.5467C36.3333 24.6134 36.2933 24.68 36.24 24.76C36.1066 24.96 35.9733 25.16 35.84 25.3734C34.64 27.24 33.3866 29.4134 32.0266 31.8134C31.9066 32.04 31.7733 32.2667 31.6533 32.4934C31.6133 32.5467 31.5733 32.6134 31.5466 32.6667L31.2666 33.16L29.6133 36.08C25.7333 42.9467 24.7466 44.52 22.8133 47.0934C19.4133 51.6134 16.5066 53.3334 12.68 53.3334C8.14665 53.3334 5.26665 51.3734 3.49331 48.4134C2.03998 46.0134 1.33331 42.8534 1.33331 39.2534L7.95998 39.48C7.95998 41.8267 8.46665 43.6134 9.14665 44.7067C10.0266 46.12 11.32 46.6667 12.6666 46.6667C14.3866 46.6667 15.9866 46.3067 19.0266 42.0934C21.4666 38.72 24.3466 34 26.28 31.0267L28.1066 28.24L28.4933 27.6267L28.8933 27.0267L29.56 26C30.5733 24.4534 31.6666 22.8134 32.84 21.24C32.9733 21.0534 33.1066 20.8667 33.2533 20.68C33.3866 20.4934 33.5333 20.3067 33.6666 20.1334C34.8666 18.6 36.1333 17.1734 37.4933 16C39.96 13.8534 42.6133 12.6667 45.2933 12.6667C49.7866 12.6667 54.0666 15.2667 57.3466 20.1467C60.6933 25.1334 62.44 31.3467 62.64 37.8134C62.6533 38.0267 62.6533 38.2534 62.6533 38.48C62.6666 38.7067 62.6666 38.92 62.6666 39.1467Z" fill="#B4B6BA"/>
<path d="M6.55731 20.608C9.59331 15.9347 13.9773 12.6667 19.004 12.6667C21.916 12.6667 24.8093 13.5267 27.832 15.9907C31.1373 18.684 34.6613 23.1187 39.0573 30.428L40.6333 33.0507C44.4386 39.3787 46.6026 42.6334 47.8706 44.1694C49.5 46.1414 50.5173 46.6667 52 46.6667C55.76 46.6667 56.8226 43.28 56.8226 39.332L62.6666 39.1494C62.6666 43.276 61.852 46.308 60.4653 48.7027C59.1266 51.0187 56.516 53.3334 52.124 53.3334C49.3933 53.3334 46.9746 52.7414 44.3 50.2227C42.244 48.2894 39.84 44.8547 37.9906 41.768L32.4893 32.596C29.7293 27.9934 27.1973 24.56 25.732 23.0067C24.156 21.3347 22.2093 19.3347 18.976 19.3347C16.3586 19.3347 14.0573 21.1507 12.1973 23.9547L6.55731 20.608Z" fill="url(#paint0_linear_10_11)"/>
<path d="M19 19.3334C16.388 19.3334 14.0893 21.1494 12.2333 23.9534C9.60798 27.916 7.99998 33.8174 7.99998 39.4854C7.99998 41.8227 7.99598 43.5814 8.66665 44.6667L3.54665 48.4174C2.09865 46.0094 1.33331 42.9334 1.33331 39.3334C1.33331 32.7867 3.13998 25.8787 6.55731 20.608C9.58931 15.9347 14.0093 12.6667 19.0266 12.6667L19 19.3334Z" fill="url(#paint1_linear_10_11)"/>
<path opacity="0.05" d="M28.8934 27.0267L28.4934 27.6267L28.1067 28.24C29.0534 29.6134 30.1334 31.2667 31.2667 33.16L31.5467 32.6667C31.5734 32.6134 31.6134 32.5467 31.6534 32.4934C31.7734 32.2667 31.9067 32.04 32.0267 31.8134C30.92 30 29.8534 28.3867 28.8934 27.0267ZM33.2534 20.68C33.1067 20.8667 32.9734 21.0534 32.84 21.24C33.8134 22.4534 34.8 23.8267 35.84 25.3734C35.9734 25.16 36.1067 24.96 36.24 24.76C36.2934 24.68 36.3334 24.6134 36.3867 24.5467C36.4667 24.4134 36.56 24.2934 36.64 24.1734C35.6267 22.68 34.64 21.3334 33.6667 20.1334C33.5334 20.3067 33.3867 20.4934 33.2534 20.68Z" fill="#B4B6BA"/>
<path opacity="0.07" d="M28.8933 27.0267L28.4933 27.6267C29.44 28.9867 30.5067 30.6133 31.6533 32.4933C31.7733 32.2667 31.9067 32.04 32.0267 31.8133C30.92 30 29.8533 28.3867 28.8933 27.0267ZM32.84 21.24C33.8133 22.4533 34.8 23.8267 35.84 25.3733C35.9733 25.16 36.1067 24.96 36.24 24.76C35.2133 23.24 34.2133 21.88 33.2533 20.68C33.1067 20.8667 32.9733 21.0533 32.84 21.24Z" fill="#B4B6BA"/>
<defs>
<linearGradient id="paint0_linear_10_11" x1="56.4053" y1="33" x2="18.044" y2="33" gradientUnits="userSpaceOnUse">
<stop stop-color="#E7E7E7"/>
<stop offset="0.995" stop-color="#A3A3AC"/>
</linearGradient>
<linearGradient id="paint1_linear_10_11" x1="10.18" y1="43.8267" x2="10.18" y2="17.3494" gradientUnits="userSpaceOnUse">
<stop stop-color="#ADAFB5"/>
<stop offset="0.995"/>
</linearGradient>
</defs>
</svg>
