<svg width="84" height="84" viewBox="0 0 84 84" fill="none" xmlns="http://www.w3.org/2000/svg">
<path d="M82.25 51.38L78.4122 54.2903L74.585 51.625C74.585 51.345 74.585 51.0475 74.5675 50.75C74.5675 50.47 74.5675 50.1725 74.55 49.875C74.305 42.98 72.555 35.595 69.055 30.1875C66.36 26.04 62.9125 24.0625 59.0625 24.0625C55.02 24.0625 51.73 26.4775 48.09 31.7275C47.985 31.885 47.8625 32.0425 47.7575 32.2175C47.6875 32.305 47.635 32.3925 47.565 32.4975C47.39 32.76 47.215 33.0225 47.04 33.3025C45.465 35.7525 43.82 38.605 42.035 41.755C41.8775 42.0525 41.7025 42.35 41.545 42.6475C41.4925 42.7175 41.44 42.805 41.405 42.875L41.0375 43.5225L38.8675 47.355C33.775 56.3675 32.48 58.4325 29.9425 61.81C25.48 67.7425 21.665 70 16.6425 70C10.6925 70 6.9125 67.4275 4.585 63.5425C2.6775 60.3925 1.75 56.245 1.75 51.52L10.4475 51.8175C10.4475 54.8975 11.1125 57.2425 12.005 58.6775C13.16 60.5325 14.8575 61.25 16.625 61.25C18.8825 61.25 20.9825 60.7775 24.9725 55.2475C28.175 50.82 31.955 44.625 34.4925 40.7225L36.89 37.065L37.3975 36.26L37.9225 35.4725L38.7975 34.125C40.1275 32.095 41.5625 29.9425 43.1025 27.8775C43.2775 27.6325 43.4525 27.3875 43.645 27.1425C43.82 26.8975 44.0125 26.6525 44.1875 26.425C45.7625 24.4125 47.425 22.54 49.21 21C52.4475 18.1825 55.93 16.625 59.4475 16.625C65.345 16.625 70.9625 20.0375 75.2675 26.4425C79.66 32.9875 81.9525 41.1425 82.215 49.63C82.2325 49.91 82.2325 50.2075 82.2325 50.505C82.25 50.8025 82.25 51.0825 82.25 51.38Z" fill="#0081FB"/>
<path d="M8.60651 27.048C12.5913 20.9143 18.3453 16.625 24.9428 16.625C28.7648 16.625 32.5623 17.7537 36.5295 20.9878C40.8678 24.5227 45.493 30.3432 51.2628 39.9367L53.3313 43.379C58.3258 51.6845 61.166 55.9562 62.8303 57.9722C64.9688 60.5605 66.304 61.25 68.25 61.25C73.185 61.25 74.5798 56.805 74.5798 51.6233L82.25 51.3835C82.25 56.7997 81.1808 60.7793 79.3608 63.9222C77.6038 66.962 74.1773 70 68.4128 70C64.8288 70 61.6543 69.223 58.1438 65.9173C55.4453 63.3797 52.29 58.8717 49.8628 54.8205L42.6423 42.7823C39.0198 36.7413 35.6965 32.235 33.7733 30.1962C31.7048 28.0017 29.1498 25.3768 24.906 25.3768C21.4708 25.3768 18.4503 27.7602 16.009 31.4405L8.60651 27.048Z" fill="url(#paint0_linear_9_674)"/>
<path d="M24.9375 25.375C21.5093 25.375 18.4923 27.7585 16.0563 31.4388C12.6105 36.6398 10.5 44.3853 10.5 51.8245C10.5 54.8923 10.4948 57.2005 11.375 58.625L4.655 63.5478C2.7545 60.3873 1.75 56.35 1.75 51.625C1.75 43.0325 4.12125 33.9658 8.6065 27.048C12.586 20.9143 18.3873 16.625 24.9725 16.625L24.9375 25.375Z" fill="url(#paint1_linear_9_674)"/>
<path opacity="0.05" d="M37.9225 35.4725L37.3975 36.26L36.89 37.065C38.1325 38.8675 39.55 41.0375 41.0375 43.5225L41.405 42.875C41.44 42.805 41.4925 42.7175 41.545 42.6475C41.7025 42.35 41.8775 42.0525 42.035 41.755C40.5825 39.375 39.1825 37.2575 37.9225 35.4725ZM43.645 27.1425C43.4525 27.3875 43.2775 27.6325 43.1025 27.8775C44.38 29.47 45.675 31.2725 47.04 33.3025C47.215 33.0225 47.39 32.76 47.565 32.4975C47.635 32.3925 47.6875 32.305 47.7575 32.2175C47.8625 32.0425 47.985 31.885 48.09 31.7275C46.76 29.7675 45.465 28 44.1875 26.425C44.0125 26.6525 43.82 26.8975 43.645 27.1425Z" fill="black"/>
<path opacity="0.07" d="M37.9225 35.4725L37.3975 36.26C38.64 38.045 40.04 40.18 41.545 42.6475C41.7025 42.35 41.8775 42.0525 42.035 41.755C40.5825 39.375 39.1825 37.2575 37.9225 35.4725ZM43.1025 27.8775C44.38 29.47 45.675 31.2725 47.04 33.3025C47.215 33.0225 47.39 32.76 47.565 32.4975C46.2175 30.5025 44.905 28.7175 43.645 27.1425C43.4525 27.3875 43.2775 27.6325 43.1025 27.8775Z" fill="black"/>
<defs>
<linearGradient id="paint0_linear_9_674" x1="74.032" y1="43.3125" x2="23.6828" y2="43.3125" gradientUnits="userSpaceOnUse">
<stop stop-color="#0081FB"/>
<stop offset="0.995" stop-color="#0064E1"/>
</linearGradient>
<linearGradient id="paint1_linear_9_674" x1="13.3613" y1="57.5225" x2="13.3613" y2="22.771" gradientUnits="userSpaceOnUse">
<stop stop-color="#0081FB"/>
<stop offset="0.995" stop-color="#0064E1"/>
</linearGradient>
</defs>
</svg>
