<svg width="1440" height="1024" viewBox="0 0 1440 1024" fill="none" xmlns="http://www.w3.org/2000/svg">
<path d="M747.62 494.336L734.756 588.159L824.046 592.195L747.62 494.336Z" fill="#BEC1C4" stroke="#BEC1C4"/>
<path d="M824.046 592.195L833.127 489.292L747.62 494.336L824.046 592.195Z" fill="#BCBEC1" stroke="#BCBEC1"/>
<path d="M734.756 588.159L737.782 706.195L824.046 592.195L734.756 588.159Z" fill="#C4C7CA" stroke="#C4C7CA"/>
<path d="M650.005 476.177L659.842 604.301L734.756 588.159L650.005 476.177Z" fill="#BEC1C3" stroke="#BEC1C3"/>
<path d="M734.756 588.159L659.842 604.301L737.782 706.195L734.756 588.159Z" fill="#C4C7CA" stroke="#C4C7CA"/>
<path d="M833.883 721.327L911.823 595.221L824.046 592.195L833.883 721.327Z" fill="#C5C8CB" stroke="#C5C8CB"/>
<path d="M824.046 592.195L911.823 595.221L833.127 489.292L824.046 592.195Z" fill="#BEC1C4" stroke="#BEC1C4"/>
<path d="M838.424 383.363L747.62 494.336L833.127 489.292L838.424 383.363Z" fill="#B6B9BC" stroke="#B6B9BC"/>
<path d="M838.424 383.363L744.593 371.257L747.62 494.336L838.424 383.363Z" fill="#B4B6BA" stroke="#B4B6BA"/>
<path d="M747.62 494.336L650.005 476.177L734.756 588.159L747.62 494.336Z" fill="#BBBDC0" stroke="#BBBDC0"/>
<path d="M919.391 492.319L838.424 383.363L833.127 489.292L919.391 492.319Z" fill="#B6B9BC" stroke="#B6B9BC"/>
<path d="M737.782 706.195L833.883 721.327L824.046 592.195L737.782 706.195Z" fill="#C8CBCE" stroke="#C8CBCE"/>
<path d="M744.593 371.257L650.005 476.177L747.62 494.336L744.593 371.257Z" fill="#B6B8BB" stroke="#B6B8BB"/>
<path d="M911.824 595.221L919.391 492.319L833.127 489.292L911.824 595.221Z" fill="#BCBEC1" stroke="#BCBEC1"/>
<path d="M576.605 609.345L646.222 701.15L659.842 604.301L576.605 609.345Z" fill="#C5C8CB" stroke="#C5C8CB"/>
<path d="M659.842 604.301L646.222 701.15L737.782 706.195L659.842 604.301Z" fill="#C7CBCE" stroke="#C7CBCE"/>
<path d="M737.782 706.195L817.236 812.124L833.883 721.327L737.782 706.195Z" fill="#CED2D4" stroke="#CED2D4"/>
<path d="M744.593 371.257L660.599 372.265L650.005 476.177L744.593 371.257Z" fill="#B3B6BA" stroke="#B3B6BA"/>
<path d="M833.883 721.327L915.607 712.248L911.823 595.221L833.883 721.327Z" fill="#C8CCCE" stroke="#C8CCCE"/>
<path d="M911.823 595.221L1004.14 602.283L919.39 492.319L911.823 595.221Z" fill="#BFC2C4" stroke="#BFC2C4"/>
<path d="M919.39 492.319L907.283 361.168L838.424 383.363L919.39 492.319Z" fill="#B4B6BA" stroke="#B4B6BA"/>
<path d="M838.424 383.363L754.43 266.336L744.593 371.257L838.424 383.363Z" fill="#B0B2B7" stroke="#B0B2B7"/>
<path d="M744.593 371.257L665.896 268.354L660.599 372.265L744.593 371.257Z" fill="#AFB1B7" stroke="#AFB1B7"/>
<path d="M745.349 833.31L817.236 812.124L737.782 706.195L745.349 833.31Z" fill="#D1D5D8" stroke="#D1D5D8"/>
<path d="M833.883 721.327L926.201 845.416L915.607 712.248L833.883 721.327Z" fill="#CFD3D6" stroke="#CFD3D6"/>
<path d="M576.605 490.301L659.842 604.301L650.005 476.177L576.605 490.301Z" fill="#BBBEC1" stroke="#BBBEC1"/>
<path d="M576.605 490.301V609.345L659.842 604.301L576.605 490.301Z" fill="#BFC2C4" stroke="#BFC2C4"/>
<path d="M570.552 372.266L576.605 490.301L650.005 476.177L570.552 372.266Z" fill="#B6B8BB" stroke="#B6B8BB"/>
<path d="M836.91 266.336H754.43L838.424 383.363L836.91 266.336Z" fill="#AEB0B5" stroke="#AEB0B5"/>
<path d="M664.383 841.381L745.349 833.31L737.782 706.195L664.383 841.381Z" fill="#D2D6D8" stroke="#D2D6D8"/>
<path d="M907.283 361.168L836.91 266.336L838.424 383.363L907.283 361.168Z" fill="#AFB2B7" stroke="#AFB2B7"/>
<path d="M915.607 712.248L1004.14 602.283L911.823 595.221L915.607 712.248Z" fill="#C5C8CB" stroke="#C5C8CB"/>
<path d="M919.391 492.319L999.601 367.221L907.283 361.168L919.391 492.319Z" fill="#B4B6BA" stroke="#B4B6BA"/>
<path d="M1004.14 602.283L1011.71 495.345L919.39 492.319L1004.14 602.283Z" fill="#BCBFC2" stroke="#BCBFC2"/>
<path d="M907.283 361.168L920.904 261.292L836.91 266.336L907.283 361.168Z" fill="#ADAFB5" stroke="#ADAFB5"/>
<path d="M754.43 266.336L665.896 268.354L744.593 371.257L754.43 266.336Z" fill="#ADAFB5" stroke="#ADAFB5"/>
<path d="M660.599 372.266H570.552L650.005 476.177L660.599 372.266Z" fill="#B3B6BA" stroke="#B3B6BA"/>
<path d="M574.335 258.265L665.896 268.354L658.329 138.212L574.335 258.265Z" fill="#A9AAB2" stroke="#A9AAB2"/>
<path d="M575.092 833.31L575.849 723.345H490.342L575.092 833.31Z" fill="#CED3D5" stroke="#CED3D5"/>
<path d="M576.605 609.345L575.849 723.345L646.222 701.15L576.605 609.345Z" fill="#C8CBCE" stroke="#C8CBCE"/>
<path d="M646.222 701.15L664.383 841.381L737.782 706.195L646.222 701.15Z" fill="#CED2D4" stroke="#CED2D4"/>
<path d="M575.849 723.345L664.383 841.381L646.222 701.15L575.849 723.345Z" fill="#CED2D5" stroke="#CED2D5"/>
<path d="M574.335 258.266L570.552 372.265H660.599L574.335 258.266Z" fill="#AFB1B7" stroke="#AFB1B7"/>
<path d="M576.605 490.301L472.181 586.142L576.605 609.345V490.301Z" fill="#BEC1C4" stroke="#BEC1C4"/>
<path d="M999.601 367.221L920.904 261.292L907.283 361.168L999.601 367.221Z" fill="#AFB1B6" stroke="#AFB1B6"/>
<path d="M743.079 140.23L665.896 268.354L754.43 266.336L743.079 140.23Z" fill="#A9ABB2" stroke="#A9ABB2"/>
<path d="M1011.71 495.345L999.601 367.221L919.39 492.319L1011.71 495.345Z" fill="#B6B8BC" stroke="#B6B8BC"/>
<path d="M991.277 817.168L1007.92 724.354L915.607 712.248L991.277 817.168Z" fill="#CED3D5" stroke="#CED3D5"/>
<path d="M915.607 712.248L1007.92 724.354L1004.14 602.283L915.607 712.248Z" fill="#C9CCCF" stroke="#C9CCCF"/>
<path d="M1081.32 590.177L1076.03 467.097L1011.71 495.345L1081.32 590.177Z" fill="#BBBEC0" stroke="#BBBEC0"/>
<path d="M814.966 924.106L926.201 845.416L817.236 812.124L814.966 924.106Z" fill="#D7DCDE" stroke="#D7DCDE"/>
<path d="M817.236 812.124L926.201 845.416L833.883 721.327L817.236 812.124Z" fill="#D2D6D9" stroke="#D2D6D9"/>
<path d="M814.966 924.106L817.236 812.124L745.35 833.31L814.966 924.106Z" fill="#D7DCDE" stroke="#D7DCDE"/>
<path d="M755.187 960.425L814.966 924.106L745.35 833.31L755.187 960.425Z" fill="#DEDEDE" stroke="#DEDEDE"/>
<path d="M1004.14 947.31L991.277 817.168L926.201 845.416L1004.14 947.31Z" fill="#DCDCDC" stroke="#DCDCDC"/>
<path d="M926.201 845.416L991.277 817.168L915.607 712.248L926.201 845.416Z" fill="#D2D6D9" stroke="#D2D6D9"/>
<path d="M575.849 723.345L575.092 833.31L664.383 841.381L575.849 723.345Z" fill="#D2D6D9" stroke="#D2D6D9"/>
<path d="M665.896 954.372L755.187 960.425L745.35 833.31L665.896 954.372Z" fill="#DFDFDF" stroke="#DFDFDF"/>
<path d="M490.342 723.345H575.849L576.605 609.345L490.342 723.345Z" fill="#C8CCCF" stroke="#C8CCCF"/>
<path d="M743.079 140.23L754.43 266.336L816.479 125.097L743.079 140.23Z" fill="#A7A8B0" stroke="#A7A8B0"/>
<path d="M665.896 268.354L574.335 258.266L660.599 372.265L665.896 268.354Z" fill="#ADAFB5" stroke="#ADAFB5"/>
<path d="M1081.32 590.177L1011.71 495.345L1004.14 602.283L1081.32 590.177Z" fill="#BFC2C4" stroke="#BFC2C4"/>
<path d="M1011.71 495.345L1076.03 467.097L999.601 367.221L1011.71 495.345Z" fill="#B6B8BB" stroke="#B6B8BB"/>
<path d="M1081.32 590.177L1004.14 602.283L1088.13 716.283L1081.32 590.177Z" fill="#C5C8CB" stroke="#C5C8CB"/>
<path d="M1088.13 716.283L1004.14 602.283L1007.92 724.354L1088.13 716.283Z" fill="#C9CCCF" stroke="#C9CCCF"/>
<path d="M491.098 381.345L576.605 490.301L570.552 372.266L491.098 381.345Z" fill="#B4B6BA" stroke="#B4B6BA"/>
<path d="M491.098 381.345L479.748 477.186L576.605 490.301L491.098 381.345Z" fill="#B6B8BB" stroke="#B6B8BB"/>
<path d="M479.748 477.186L472.181 586.142L576.605 490.301L479.748 477.186Z" fill="#BBBDC0" stroke="#BBBDC0"/>
<path d="M665.896 954.372L745.349 833.31L664.383 841.38L665.896 954.372Z" fill="#DCDCDC" stroke="#DCDCDC"/>
<path d="M816.479 125.097L754.43 266.336H836.91L816.479 125.097Z" fill="#A9AAB2" stroke="#A9AAB2"/>
<path d="M999.601 367.221L1007.17 259.274L920.904 261.292L999.601 367.221Z" fill="#ADAFB5" stroke="#ADAFB5"/>
<path d="M921.661 146.283L816.479 125.097L836.91 266.336L921.661 146.283Z" fill="#A7A8B0" stroke="#A7A8B0"/>
<path d="M1092.67 373.274L1007.17 259.274L999.601 367.221L1092.67 373.274Z" fill="#AFB1B7" stroke="#AFB1B7"/>
<path d="M574.335 258.266L491.098 381.345L570.552 372.265L574.335 258.266Z" fill="#AFB1B7" stroke="#AFB1B7"/>
<path d="M472.181 586.142L490.342 723.345L576.605 609.345L472.181 586.142Z" fill="#C5C8CB" stroke="#C5C8CB"/>
<path d="M921.661 146.283L836.91 266.336L920.904 261.292L921.661 146.283Z" fill="#A9ABB2" stroke="#A9ABB2"/>
<path d="M556.931 925.115L665.896 954.372L664.383 841.381L556.931 925.115Z" fill="#DEDEDE" stroke="#DEDEDE"/>
<path d="M827.83 1056.27L919.391 948.319L814.966 924.106L827.83 1056.27Z" fill="#E2E2E2" stroke="#E2E2E2"/>
<path d="M814.966 924.106L919.391 948.319L926.201 845.416L814.966 924.106Z" fill="#DEDEDE" stroke="#DEDEDE"/>
<path d="M732.486 10.0885L658.329 138.212L743.079 140.23L732.486 10.0885Z" fill="#A3A3AC" stroke="#A3A3AC"/>
<path d="M743.079 140.23L658.329 138.212L665.896 268.354L743.079 140.23Z" fill="#A7A8B0" stroke="#A7A8B0"/>
<path d="M1088.13 829.274L1007.92 724.354L991.277 817.168L1088.13 829.274Z" fill="#D2D6D9" stroke="#D2D6D9"/>
<path d="M1088.13 829.274V716.283L1007.92 724.354L1088.13 829.274Z" fill="#CFD3D6" stroke="#CFD3D6"/>
<path d="M1007.17 259.274L921.661 146.283L920.904 261.292L1007.17 259.274Z" fill="#A9ABB2" stroke="#A9ABB2"/>
<path d="M1178.18 490.301L1092.67 373.274L1076.03 467.097L1178.18 490.301Z" fill="#B6B8BC" stroke="#B6B8BC"/>
<path d="M1076.03 467.097L1092.67 373.274L999.601 367.221L1076.03 467.097Z" fill="#B3B6BA" stroke="#B3B6BA"/>
<path d="M1178.18 490.301L1076.03 467.097L1081.32 590.177L1178.18 490.301Z" fill="#BBBDC0" stroke="#BBBDC0"/>
<path d="M475.208 814.142L556.931 925.115L575.092 833.31L475.208 814.142Z" fill="#D6DBDD" stroke="#D6DBDD"/>
<path d="M575.092 833.31L556.931 925.115L664.383 841.38L575.092 833.31Z" fill="#D7DCDE" stroke="#D7DCDE"/>
<path d="M387.43 701.15L475.208 814.142L490.342 723.345L387.43 701.15Z" fill="#CDD1D4" stroke="#CDD1D4"/>
<path d="M490.342 723.345L475.208 814.142L575.092 833.31L490.342 723.345Z" fill="#D1D5D8" stroke="#D1D5D8"/>
<path d="M1004.14 947.31L1088.13 829.274L991.277 817.168L1004.14 947.31Z" fill="#DCDCDC" stroke="#DCDCDC"/>
<path d="M1166.83 358.142L1094.94 262.301L1092.67 373.274L1166.83 358.142Z" fill="#AFB1B7" stroke="#AFB1B7"/>
<path d="M654.545 1057.27L730.215 1044.16L665.896 954.372L654.545 1057.27Z" fill="#E4E4E4" stroke="#E4E4E4"/>
<path d="M665.896 954.372L730.215 1044.16L755.187 960.425L665.896 954.372Z" fill="#E3E3E3" stroke="#E3E3E3"/>
<path d="M755.187 960.425L827.83 1056.27L814.966 924.106L755.187 960.425Z" fill="#E2E2E2" stroke="#E2E2E2"/>
<path d="M574.335 258.265L481.261 250.195L491.098 381.345L574.335 258.265Z" fill="#ADAFB5" stroke="#ADAFB5"/>
<path d="M406.348 380.336L400.294 486.265L479.748 477.186L406.348 380.336Z" fill="#B6B8BB" stroke="#B6B8BB"/>
<path d="M479.748 477.186L400.294 486.265L472.181 586.142L479.748 477.186Z" fill="#BABDC0" stroke="#BABDC0"/>
<path d="M560.715 125.097L481.261 250.195L574.335 258.265L560.715 125.097Z" fill="#A8AAB1" stroke="#A8AAB1"/>
<path d="M998.844 1056.27L1004.14 947.31L919.39 948.319L998.844 1056.27Z" fill="#E3E3E3" stroke="#E3E3E3"/>
<path d="M919.39 948.319L1004.14 947.31L926.201 845.416L919.39 948.319Z" fill="#DFDFDF" stroke="#DFDFDF"/>
<path d="M1163.05 701.15L1081.32 590.177L1088.13 716.283L1163.05 701.15Z" fill="#C8CBCE" stroke="#C8CBCE"/>
<path d="M1092.67 373.274L1094.94 262.301L1007.17 259.274L1092.67 373.274Z" fill="#ADAFB5" stroke="#ADAFB5"/>
<path d="M1007.17 259.274L991.277 124.089L921.66 146.283L1007.17 259.274Z" fill="#A7A8B0" stroke="#A7A8B0"/>
<path d="M406.348 380.336L479.748 477.186L491.098 381.345L406.348 380.336Z" fill="#B4B6BA" stroke="#B4B6BA"/>
<path d="M472.181 586.142L387.43 701.151L490.342 723.345L472.181 586.142Z" fill="#C7CACD" stroke="#C7CACD"/>
<path d="M1082.84 133.168L991.277 124.089L1007.17 259.274L1082.84 133.168Z" fill="#A7A8B0" stroke="#A7A8B0"/>
<path d="M921.661 146.283L831.613 28.2478L816.479 125.097L921.661 146.283Z" fill="#A3A3AC" stroke="#A3A3AC"/>
<path d="M730.215 1044.16L827.83 1056.27L755.187 960.425L730.215 1044.16Z" fill="#E4E4E4" stroke="#E4E4E4"/>
<path d="M400.294 486.266L398.024 598.248L472.181 586.142L400.294 486.266Z" fill="#BEC0C3" stroke="#BEC0C3"/>
<path d="M574.335 30.2655L560.715 125.097L658.329 138.212L574.335 30.2655Z" fill="#A3A3AC" stroke="#A3A3AC"/>
<path d="M658.329 138.212L560.715 125.097L574.335 258.265L658.329 138.212Z" fill="#A7A8AF" stroke="#A7A8AF"/>
<path d="M481.261 250.195L406.348 380.336L491.098 381.345L481.261 250.195Z" fill="#AFB1B7" stroke="#AFB1B7"/>
<path d="M923.174 37.3274L831.613 28.2478L921.661 146.283L923.174 37.3274Z" fill="#9FA0A9" stroke="#9FA0A9"/>
<path d="M816.479 125.097L732.486 10.0885L743.08 140.23L816.479 125.097Z" fill="#A2A2AB" stroke="#A2A2AB"/>
<path d="M827.83 1056.27L911.824 1052.23L919.391 948.319L827.83 1056.27Z" fill="#E5E5E5" stroke="#E5E5E5"/>
<path d="M1160.78 814.142L1163.05 701.15L1088.13 716.283L1160.78 814.142Z" fill="#CED2D5" stroke="#CED2D5"/>
<path d="M581.902 1074.42L654.546 1057.27L665.896 954.372L581.902 1074.42Z" fill="#E5E5E5" stroke="#E5E5E5"/>
<path d="M581.902 1074.42L665.896 954.372L556.931 925.115L581.902 1074.42Z" fill="#E2E2E2" stroke="#E2E2E2"/>
<path d="M1180.45 606.319L1178.18 490.301L1081.32 590.177L1180.45 606.319Z" fill="#BFC2C5" stroke="#BFC2C5"/>
<path d="M1163.05 701.15L1180.45 606.319L1081.32 590.177L1163.05 701.15Z" fill="#C5C8CB" stroke="#C5C8CB"/>
<path d="M398.024 598.248L387.43 701.151L472.181 586.142L398.024 598.248Z" fill="#C3C7C9" stroke="#C3C7C9"/>
<path d="M317.057 609.345L387.43 701.15L398.024 598.248L317.057 609.345Z" fill="#C4C7CA" stroke="#C4C7CA"/>
<path d="M831.613 28.2478L732.486 10.0885L816.479 125.097L831.613 28.2478Z" fill="#9D9EA7" stroke="#9D9EA7"/>
<path d="M991.277 124.088L923.174 37.3274L921.66 146.283L991.277 124.088Z" fill="#A3A3AC" stroke="#A3A3AC"/>
<path d="M732.486 -103.911L660.599 -83.7345L732.486 10.0885V-103.911Z" fill="#8E929A" stroke="#8E929A"/>
<path d="M1178.18 490.301L1166.83 358.142L1092.67 373.274L1178.18 490.301Z" fill="#B4B6BA" stroke="#B4B6BA"/>
<path d="M1094.94 262.301L1082.84 133.168L1007.17 259.274L1094.94 262.301Z" fill="#A9AAB2" stroke="#A9AAB2"/>
<path d="M401.808 835.328L485.801 946.301L475.208 814.142L401.808 835.328Z" fill="#D7DCDE" stroke="#D7DCDE"/>
<path d="M475.208 814.142L485.801 946.301L556.931 925.115L475.208 814.142Z" fill="#DDDDDD" stroke="#DDDDDD"/>
<path d="M732.486 10.0885L646.978 9.07965L658.329 138.212L732.486 10.0885Z" fill="#9D9EA7" stroke="#9D9EA7"/>
<path d="M1088.13 829.274L1160.78 814.142L1088.13 716.283V829.274Z" fill="#D2D6D8" stroke="#D2D6D8"/>
<path d="M1268.99 726.372L1247.8 585.133L1180.45 606.319L1268.99 726.372Z" fill="#C5C9CB" stroke="#C5C9CB"/>
<path d="M1100.24 958.407L1160.78 814.142L1088.13 829.274L1100.24 958.407Z" fill="#DCDCDC" stroke="#DCDCDC"/>
<path d="M1100.24 958.407L1088.13 829.274L1004.14 947.31L1100.24 958.407Z" fill="#DFDFDF" stroke="#DFDFDF"/>
<path d="M387.43 701.15L401.808 835.327L475.208 814.142L387.43 701.15Z" fill="#D0D4D7" stroke="#D0D4D7"/>
<path d="M1163.8 125.097L1082.84 133.168L1094.94 262.301L1163.8 125.097Z" fill="#A7A8B0" stroke="#A7A8B0"/>
<path d="M991.277 124.088V10.0885L923.174 37.3274L991.277 124.088Z" fill="#9E9FA8" stroke="#9E9FA8"/>
<path d="M911.823 1052.23L998.844 1056.27L919.39 948.319L911.823 1052.23Z" fill="#E5E5E5" stroke="#E5E5E5"/>
<path d="M646.978 9.07965L574.335 30.2655L658.329 138.212L646.978 9.07965Z" fill="#9E9FA7" stroke="#9E9FA7"/>
<path d="M402.564 149.31L398.024 253.221L481.261 250.195L402.564 149.31Z" fill="#A9AAB1" stroke="#A9AAB1"/>
<path d="M481.261 250.195L398.024 253.221L406.348 380.336L481.261 250.195Z" fill="#ADAFB5" stroke="#ADAFB5"/>
<path d="M477.478 1051.22L581.902 1074.42L556.931 925.115L477.478 1051.22Z" fill="#E4E4E4" stroke="#E4E4E4"/>
<path d="M470.667 120.053L481.261 250.195L560.715 125.097L470.667 120.053Z" fill="#A6A7AF" stroke="#A6A7AF"/>
<path d="M304.193 473.15L317.057 609.345L400.294 486.265L304.193 473.15Z" fill="#BBBDC0" stroke="#BBBDC0"/>
<path d="M400.294 486.266L317.057 609.345L398.024 598.248L400.294 486.266Z" fill="#BEC1C4" stroke="#BEC1C4"/>
<path d="M1089.65 1062.32L1100.24 958.407L1004.14 947.31L1089.65 1062.32Z" fill="#E3E3E3" stroke="#E3E3E3"/>
<path d="M484.288 21.1859L470.667 120.053L560.715 125.097L484.288 21.1859Z" fill="#A1A2AB" stroke="#A1A2AB"/>
<path d="M1251.58 360.159L1175.16 257.257L1166.83 358.142L1251.58 360.159Z" fill="#AFB1B6" stroke="#AFB1B6"/>
<path d="M1166.83 358.142L1175.16 257.257L1094.94 262.301L1166.83 358.142Z" fill="#ADAFB5" stroke="#ADAFB5"/>
<path d="M1249.31 468.106L1166.83 358.142L1178.18 490.301L1249.31 468.106Z" fill="#B6B8BB" stroke="#B6B8BB"/>
<path d="M1076.78 9.07965L991.277 10.0885V124.088L1076.78 9.07965Z" fill="#9C9EA6" stroke="#9C9EA6"/>
<path d="M904.257 -103.911L821.02 -102.903L831.613 28.2478L904.257 -103.911Z" fill="#8E929A" stroke="#8E929A"/>
<path d="M732.486 10.0885L660.599 -83.7345L646.978 9.07966L732.486 10.0885Z" fill="#93969E" stroke="#93969E"/>
<path d="M304.193 473.15L400.294 486.265L406.348 380.336L304.193 473.15Z" fill="#B5B8BB" stroke="#B5B8BB"/>
<path d="M387.43 701.15L308.734 823.221L401.808 835.327L387.43 701.15Z" fill="#D0D5D7" stroke="#D0D5D7"/>
<path d="M1268.99 726.372L1180.45 606.319L1163.05 701.15L1268.99 726.372Z" fill="#C9CCCF" stroke="#C9CCCF"/>
<path d="M1180.45 606.319L1247.8 585.133L1178.18 490.301L1180.45 606.319Z" fill="#BFC2C4" stroke="#BFC2C4"/>
<path d="M1247.8 585.133L1249.31 468.106L1178.18 490.301L1247.8 585.133Z" fill="#BBBDC0" stroke="#BBBDC0"/>
<path d="M309.49 366.212L304.193 473.15L406.348 380.336L309.49 366.212Z" fill="#B3B5B9" stroke="#B3B5B9"/>
<path d="M477.478 1051.22L556.931 925.115L485.801 946.301L477.478 1051.22Z" fill="#E1E1E1" stroke="#E1E1E1"/>
<path d="M301.167 927.133L406.348 955.381L401.808 835.327L301.167 927.133Z" fill="#DDDDDD" stroke="#DDDDDD"/>
<path d="M401.808 835.327L406.348 955.381L485.801 946.301L401.808 835.327Z" fill="#DEDEDE" stroke="#DEDEDE"/>
<path d="M998.844 1056.27L1089.65 1062.32L1004.14 947.31L998.844 1056.27Z" fill="#E5E5E5" stroke="#E5E5E5"/>
<path d="M406.348 955.38L477.478 1051.22L485.801 946.301L406.348 955.38Z" fill="#E2E2E2" stroke="#E2E2E2"/>
<path d="M390.457 14.1239L402.564 149.31L470.667 120.053L390.457 14.1239Z" fill="#A2A2AB" stroke="#A2A2AB"/>
<path d="M470.667 120.053L402.564 149.31L481.261 250.195L470.667 120.053Z" fill="#A7A7AF" stroke="#A7A7AF"/>
<path d="M398.024 253.221L309.49 366.212L406.348 380.336L398.024 253.221Z" fill="#AFB1B6" stroke="#AFB1B6"/>
<path d="M231.55 608.336L306.464 708.212L317.057 609.345L231.55 608.336Z" fill="#C4C8CA" stroke="#C4C8CA"/>
<path d="M317.057 609.345L306.464 708.212L387.43 701.15L317.057 609.345Z" fill="#C7CACD" stroke="#C7CACD"/>
<path d="M296.626 236.071L309.49 366.212L398.024 253.221L296.626 236.071Z" fill="#ACAEB4" stroke="#ACAEB4"/>
<path d="M821.02 -102.903L732.486 10.0885L831.613 28.2478L821.02 -102.903Z" fill="#93969E" stroke="#93969E"/>
<path d="M646.978 9.07967L569.038 -93.823L574.335 30.2655L646.978 9.07967Z" fill="#93969E" stroke="#93969E"/>
<path d="M574.335 30.2655L484.288 21.1859L560.715 125.097L574.335 30.2655Z" fill="#9D9FA7" stroke="#9D9FA7"/>
<path d="M904.256 -103.911L831.613 28.2478L923.174 37.3274L904.256 -103.911Z" fill="#94979F" stroke="#94979F"/>
<path d="M821.02 -102.903L732.486 -103.911V10.0885L821.02 -102.903Z" fill="#8D9199" stroke="#8D9199"/>
<path d="M1249.31 468.106L1251.58 360.159L1166.83 358.142L1249.31 468.106Z" fill="#B3B5B9" stroke="#B3B5B9"/>
<path d="M1175.16 257.257L1163.8 125.097L1094.94 262.301L1175.16 257.257Z" fill="#A9AAB1" stroke="#A9AAB1"/>
<path d="M1269.74 264.319L1251.58 360.159L1347.68 373.274L1269.74 264.319Z" fill="#AFB1B7" stroke="#AFB1B7"/>
<path d="M569.038 -93.823L484.288 21.1859L574.335 30.2655L569.038 -93.823Z" fill="#94979F" stroke="#94979F"/>
<path d="M1100.24 958.407L1177.43 948.319L1160.78 814.142L1100.24 958.407Z" fill="#DFDFDF" stroke="#DFDFDF"/>
<path d="M1249.31 814.142L1268.99 726.372L1163.05 701.15L1249.31 814.142Z" fill="#CED3D5" stroke="#CED3D5"/>
<path d="M1185.75 1073.42L1177.43 948.319L1100.24 958.407L1185.75 1073.42Z" fill="#E4E4E4" stroke="#E4E4E4"/>
<path d="M1082.84 133.168L1076.78 9.07965L991.277 124.089L1082.84 133.168Z" fill="#A2A2AB" stroke="#A2A2AB"/>
<path d="M1252.34 128.124L1163.8 125.097L1175.16 257.257L1252.34 128.124Z" fill="#A7A8AF" stroke="#A7A8AF"/>
<path d="M1163.8 125.097L1076.78 9.07965L1082.84 133.168L1163.8 125.097Z" fill="#A2A2AB" stroke="#A2A2AB"/>
<path d="M991.277 10.0885L904.257 -103.911L923.174 37.3274L991.277 10.0885Z" fill="#93979F" stroke="#93979F"/>
<path d="M1013.98 -76.6726L904.257 -103.911L991.277 10.0885L1013.98 -76.6726Z" fill="#8E939A" stroke="#8E939A"/>
<path d="M1249.31 814.142L1163.05 701.15L1160.78 814.142H1249.31Z" fill="#D1D5D8" stroke="#D1D5D8"/>
<path d="M1247.8 585.133L1346.93 485.257L1249.31 468.106L1247.8 585.133Z" fill="#BBBDC0" stroke="#BBBDC0"/>
<path d="M1177.43 948.319L1249.31 814.142H1160.78L1177.43 948.319Z" fill="#D8DDDF" stroke="#D8DDDF"/>
<path d="M306.464 708.212L308.734 823.221L387.43 701.15L306.464 708.212Z" fill="#CDD1D3" stroke="#CDD1D3"/>
<path d="M406.348 955.381L409.375 1074.42L477.478 1051.22L406.348 955.381Z" fill="#E4E4E4" stroke="#E4E4E4"/>
<path d="M1259.91 1057.27L1253.85 936.212L1177.43 948.319L1259.91 1057.27Z" fill="#E3E3E3" stroke="#E3E3E3"/>
<path d="M1076.78 9.07967L1013.98 -76.6725L991.277 10.0885L1076.78 9.07967Z" fill="#93979F" stroke="#93979F"/>
<path d="M1076.78 -107.947L1013.98 -76.6726L1076.78 9.07966V-107.947Z" fill="#8E929A" stroke="#8E929A"/>
<path d="M660.599 -83.7345L569.038 -93.823L646.978 9.07967L660.599 -83.7345Z" fill="#8E929A" stroke="#8E929A"/>
<path d="M1347.68 373.274L1251.58 360.159L1249.31 468.106L1347.68 373.274Z" fill="#B3B6BA" stroke="#B3B6BA"/>
<path d="M1251.58 360.159L1269.74 264.319L1175.16 257.257L1251.58 360.159Z" fill="#ADAFB5" stroke="#ADAFB5"/>
<path d="M313.274 141.239L296.626 236.071L398.024 253.221L313.274 141.239Z" fill="#A8AAB1" stroke="#A8AAB1"/>
<path d="M223.983 480.212L231.55 608.336L304.193 473.15L223.983 480.212Z" fill="#BABDC0" stroke="#BABDC0"/>
<path d="M304.193 473.15L231.55 608.336L317.057 609.345L304.193 473.15Z" fill="#BEC1C3" stroke="#BEC1C3"/>
<path d="M306.464 708.212L227.01 830.283L308.734 823.221L306.464 708.212Z" fill="#D0D4D7" stroke="#D0D4D7"/>
<path d="M313.274 141.239L398.024 253.221L402.564 149.31L313.274 141.239Z" fill="#A7A8B0" stroke="#A7A8B0"/>
<path d="M390.457 14.1239L470.667 120.053L484.288 21.1858L390.457 14.1239Z" fill="#9C9EA6" stroke="#9C9EA6"/>
<path d="M305.707 1053.24L409.375 1074.42L406.348 955.381L305.707 1053.24Z" fill="#E4E4E4" stroke="#E4E4E4"/>
<path d="M1177.43 948.319L1253.85 936.212L1249.31 814.142L1177.43 948.319Z" fill="#DEDEDE" stroke="#DEDEDE"/>
<path d="M223.983 480.212L304.193 473.15L309.49 366.212L223.983 480.212Z" fill="#B5B7BB" stroke="#B5B7BB"/>
<path d="M1185.75 1073.42L1100.24 958.407L1089.65 1062.32L1185.75 1073.42Z" fill="#E6E6E6" stroke="#E6E6E6"/>
<path d="M1336.33 815.15L1333.31 699.133L1268.99 726.372L1336.33 815.15Z" fill="#CED3D5" stroke="#CED3D5"/>
<path d="M227.01 830.283L301.167 927.133L308.734 823.221L227.01 830.283Z" fill="#D6DBDD" stroke="#D6DBDD"/>
<path d="M308.734 823.221L301.167 927.133L401.808 835.327L308.734 823.221Z" fill="#D6DBDD" stroke="#D6DBDD"/>
<path d="M1252.34 128.124L1169.1 19.1682L1163.8 125.097L1252.34 128.124Z" fill="#A2A3AC" stroke="#A2A3AC"/>
<path d="M1163.8 125.097L1169.1 19.1681L1076.78 9.07965L1163.8 125.097Z" fill="#9D9EA7" stroke="#9D9EA7"/>
<path d="M480.505 -95.8407L390.457 14.1239L484.288 21.1859L480.505 -95.8407Z" fill="#93969E" stroke="#93969E"/>
<path d="M322.354 40.354L313.274 141.239L402.564 149.31L322.354 40.354Z" fill="#A3A4AC" stroke="#A3A4AC"/>
<path d="M211.119 353.097L223.983 480.212L309.49 366.212L211.119 353.097Z" fill="#B3B5B9" stroke="#B3B5B9"/>
<path d="M211.119 353.097L309.49 366.212L296.626 236.071L211.119 353.097Z" fill="#AEB0B6" stroke="#AEB0B6"/>
<path d="M1336.33 815.15L1268.99 726.372L1249.31 814.142L1336.33 815.15Z" fill="#D2D6D8" stroke="#D2D6D8"/>
<path d="M1268.99 726.372L1333.31 699.133L1247.8 585.133L1268.99 726.372Z" fill="#C8CCCE" stroke="#C8CCCE"/>
<path d="M569.038 -93.823L480.505 -95.8407L484.288 21.1859L569.038 -93.823Z" fill="#8E929A" stroke="#8E929A"/>
<path d="M1349.95 602.283L1346.93 485.257L1247.8 585.133L1349.95 602.283Z" fill="#BFC1C4" stroke="#BFC1C4"/>
<path d="M1343.9 137.204L1252.34 128.124L1269.74 264.319L1343.9 137.204Z" fill="#A7A8B0" stroke="#A7A8B0"/>
<path d="M1269.74 264.319L1252.34 128.124L1175.16 257.257L1269.74 264.319Z" fill="#A9AAB2" stroke="#A9AAB2"/>
<path d="M1333.31 699.133L1349.95 602.283L1247.8 585.133L1333.31 699.133Z" fill="#C5C8CB" stroke="#C5C8CB"/>
<path d="M1173.64 -93.823L1076.78 9.07965L1169.1 19.1681L1173.64 -93.823Z" fill="#93969E" stroke="#93969E"/>
<path d="M1173.64 -93.823L1076.78 -107.947V9.07966L1173.64 -93.823Z" fill="#8E9299" stroke="#8E9299"/>
<path d="M142.26 605.31L214.903 700.142L231.55 608.336L142.26 605.31Z" fill="#C4C7CA" stroke="#C4C7CA"/>
<path d="M231.55 608.336L214.903 700.142L306.464 708.212L231.55 608.336Z" fill="#C7CACD" stroke="#C7CACD"/>
<path d="M1445.3 383.363L1347.68 373.274L1346.93 485.257L1445.3 383.363Z" fill="#B4B6BA" stroke="#B4B6BA"/>
<path d="M1346.93 485.257L1347.68 373.274L1249.31 468.106L1346.93 485.257Z" fill="#B6B8BC" stroke="#B6B8BC"/>
<path d="M214.903 242.124L211.119 353.097L296.626 236.071L214.903 242.124Z" fill="#ACADB4" stroke="#ACADB4"/>
<path d="M223.983 480.212L149.07 501.398L231.55 608.336L223.983 480.212Z" fill="#BBBDC0" stroke="#BBBDC0"/>
<path d="M214.903 700.142L227.01 830.283L306.464 708.212L214.903 700.142Z" fill="#CDD1D3" stroke="#CDD1D3"/>
<path d="M301.167 927.133L305.707 1053.24L406.348 955.381L301.167 927.133Z" fill="#E1E1E1" stroke="#E1E1E1"/>
<path d="M1356.01 958.407L1336.33 815.15L1253.85 936.212L1356.01 958.407Z" fill="#DFDFDF" stroke="#DFDFDF"/>
<path d="M1253.85 936.212L1336.33 815.151L1249.31 814.142L1253.85 936.212Z" fill="#D8DDDF" stroke="#D8DDDF"/>
<path d="M1333.31 699.133L1418.81 698.124L1349.95 602.283L1333.31 699.133Z" fill="#C8CBCE" stroke="#C8CBCE"/>
<path d="M302.68 -102.903L322.354 40.354L390.457 14.1239L302.68 -102.903Z" fill="#93969E" stroke="#93969E"/>
<path d="M390.457 14.1239L322.354 40.354L402.564 149.31L390.457 14.1239Z" fill="#9E9FA8" stroke="#9E9FA8"/>
<path d="M223.227 135.186L214.903 242.124L296.626 236.071L223.227 135.186Z" fill="#A8A9B1" stroke="#A8A9B1"/>
<path d="M236.09 958.407L305.707 1053.24L301.167 927.133L236.09 958.407Z" fill="#E1E1E1" stroke="#E1E1E1"/>
<path d="M480.505 -95.8407L386.674 -104.92L390.457 14.1239L480.505 -95.8407Z" fill="#8D9199" stroke="#8D9199"/>
<path d="M1347.68 373.274L1345.41 252.212L1269.74 264.319L1347.68 373.274Z" fill="#ADAFB5" stroke="#ADAFB5"/>
<path d="M223.227 135.186L296.626 236.071L313.274 141.239L223.227 135.186Z" fill="#A6A7AF" stroke="#A6A7AF"/>
<path d="M1185.75 1073.42L1259.91 1057.27L1177.43 948.319L1185.75 1073.42Z" fill="#E6E6E6" stroke="#E6E6E6"/>
<path d="M1252.34 128.124L1261.42 23.2035L1169.1 19.1682L1252.34 128.124Z" fill="#9E9FA8" stroke="#9E9FA8"/>
<path d="M1343.9 137.204L1261.42 23.2036L1252.34 128.124L1343.9 137.204Z" fill="#A3A3AC" stroke="#A3A3AC"/>
<path d="M1249.31 -107.947L1173.64 -93.823L1169.1 19.1682L1249.31 -107.947Z" fill="#8E929A" stroke="#8E929A"/>
<path d="M227.01 830.283L236.09 958.407L301.167 927.133L227.01 830.283Z" fill="#DDDDDD" stroke="#DDDDDD"/>
<path d="M148.313 956.389L236.09 958.407L227.01 830.283L148.313 956.389Z" fill="#DDDDDD" stroke="#DDDDDD"/>
<path d="M235.334 40.354L223.227 135.186L313.274 141.239L235.334 40.354Z" fill="#A3A3AC" stroke="#A3A3AC"/>
<path d="M136.206 363.186L223.983 480.212L211.119 353.097L136.206 363.186Z" fill="#B2B5B9" stroke="#B2B5B9"/>
<path d="M136.206 363.186L149.07 501.398L223.983 480.212L136.206 363.186Z" fill="#B5B7BB" stroke="#B5B7BB"/>
<path d="M214.903 700.142L141.503 717.292L227.01 830.283L214.903 700.142Z" fill="#CDD1D3" stroke="#CDD1D3"/>
<path d="M235.334 40.354L313.274 141.239L322.354 40.354H235.334Z" fill="#9FA0A9" stroke="#9FA0A9"/>
<path d="M145.286 263.31L136.206 363.186L211.119 353.097L145.286 263.31Z" fill="#AEB0B6" stroke="#AEB0B6"/>
<path d="M149.07 501.398L142.26 605.31L231.55 608.336L149.07 501.398Z" fill="#BEC1C4" stroke="#BEC1C4"/>
<path d="M1441.51 148.301L1343.9 137.204L1345.41 252.212L1441.51 148.301Z" fill="#A7A8B0" stroke="#A7A8B0"/>
<path d="M1345.41 252.212L1343.9 137.204L1269.74 264.319L1345.41 252.212Z" fill="#A9ABB2" stroke="#A9ABB2"/>
<path d="M1261.42 23.2036L1249.31 -107.947L1169.1 19.1682L1261.42 23.2036Z" fill="#93969E" stroke="#93969E"/>
<path d="M1336.33 815.15L1418.81 698.124L1333.31 699.133L1336.33 815.15Z" fill="#CED2D4" stroke="#CED2D4"/>
<path d="M1349.95 602.283L1430.92 596.23L1346.93 485.257L1349.95 602.283Z" fill="#BFC2C5" stroke="#BFC2C5"/>
<path d="M1347.68 373.274L1435.46 259.274L1345.41 252.212L1347.68 373.274Z" fill="#ADAFB5" stroke="#ADAFB5"/>
<path d="M1427.89 825.239L1418.81 698.124L1336.33 815.15L1427.89 825.239Z" fill="#D1D6D8" stroke="#D1D6D8"/>
<path d="M1418.81 698.124L1430.92 596.23L1349.95 602.283L1418.81 698.124Z" fill="#C5C8CB" stroke="#C5C8CB"/>
<path d="M142.26 605.31L141.503 717.292L214.903 700.142L142.26 605.31Z" fill="#C7CACD" stroke="#C7CACD"/>
<path d="M1334.82 1043.15L1253.85 936.212L1259.91 1057.27L1334.82 1043.15Z" fill="#E5E5E5" stroke="#E5E5E5"/>
<path d="M1334.82 1043.15L1356.01 958.407L1253.85 936.212L1334.82 1043.15Z" fill="#E3E3E3" stroke="#E3E3E3"/>
<path d="M145.286 263.31L211.119 353.097L214.903 242.124L145.286 263.31Z" fill="#ACAEB4" stroke="#ACAEB4"/>
<path d="M149.07 501.398L49.9423 595.221L142.26 605.31L149.07 501.398Z" fill="#BEC1C3" stroke="#BEC1C3"/>
<path d="M142.26 605.31L58.2659 722.336L141.503 717.292L142.26 605.31Z" fill="#C7CBCD" stroke="#C7CBCD"/>
<path d="M215.66 1047.19L305.707 1053.24L236.09 958.407L215.66 1047.19Z" fill="#E3E3E3" stroke="#E3E3E3"/>
<path d="M236.09 -80.708L235.334 40.3539H322.354L236.09 -80.708Z" fill="#9598A0" stroke="#9598A0"/>
<path d="M145.286 147.292V263.31L214.903 242.124L145.286 147.292Z" fill="#A9AAB1" stroke="#A9AAB1"/>
<path d="M302.68 -102.903L390.457 14.1239L386.674 -104.92L302.68 -102.903Z" fill="#8D9199" stroke="#8D9199"/>
<path d="M1430.92 596.23L1443.03 501.398L1346.93 485.257L1430.92 596.23Z" fill="#BCBFC2" stroke="#BCBFC2"/>
<path d="M1423.35 934.195L1427.89 825.239L1336.33 815.15L1423.35 934.195Z" fill="#D8DDDF" stroke="#D8DDDF"/>
<path d="M141.503 717.292L143.016 838.354L227.01 830.283L141.503 717.292Z" fill="#D0D5D7" stroke="#D0D5D7"/>
<path d="M145.286 147.292L214.903 242.124L223.226 135.186L145.286 147.292Z" fill="#A6A7AF" stroke="#A6A7AF"/>
<path d="M148.313 956.389L215.66 1047.19L236.09 958.407L148.313 956.389Z" fill="#E1E1E1" stroke="#E1E1E1"/>
<path d="M1443.03 501.398L1445.3 383.363L1346.93 485.257L1443.03 501.398Z" fill="#B7B9BC" stroke="#B7B9BC"/>
<path d="M1337.85 -102.903L1249.31 -107.947L1261.42 23.2036L1337.85 -102.903Z" fill="#8E929A" stroke="#8E929A"/>
<path d="M1339.36 14.1239L1261.42 23.2035L1343.9 137.204L1339.36 14.1239Z" fill="#9E9FA8" stroke="#9E9FA8"/>
<path d="M1423.35 934.195L1336.33 815.15L1356.01 958.407L1423.35 934.195Z" fill="#DFDFDF" stroke="#DFDFDF"/>
<path d="M1528.53 609.345L1443.03 501.398L1430.92 596.23L1528.53 609.345Z" fill="#C0C2C5" stroke="#C0C2C5"/>
<path d="M1436.22 28.2478L1339.36 14.1239L1343.9 137.204L1436.22 28.2478Z" fill="#9E9FA8" stroke="#9E9FA8"/>
<path d="M1445.3 383.363L1435.46 259.274L1347.68 373.274L1445.3 383.363Z" fill="#B0B2B7" stroke="#B0B2B7"/>
<path d="M53.7257 946.301L148.313 956.389L143.016 838.354L53.7257 946.301Z" fill="#DDDDDD" stroke="#DDDDDD"/>
<path d="M143.016 838.354L148.313 956.389L227.01 830.283L143.016 838.354Z" fill="#D7DCDE" stroke="#D7DCDE"/>
<path d="M133.179 16.1416L145.286 147.292L235.334 40.354L133.179 16.1416Z" fill="#9E9FA8" stroke="#9E9FA8"/>
<path d="M235.334 40.354L145.286 147.292L223.226 135.186L235.334 40.354Z" fill="#A3A3AC" stroke="#A3A3AC"/>
<path d="M40.1051 467.097L149.07 501.398L136.206 363.186L40.1051 467.097Z" fill="#B5B7BB" stroke="#B5B7BB"/>
<path d="M1437.73 1065.35L1356.01 958.407L1334.82 1043.15L1437.73 1065.35Z" fill="#E6E6E6" stroke="#E6E6E6"/>
<path d="M1437.73 1065.35L1423.35 934.195L1356.01 958.407L1437.73 1065.35Z" fill="#E4E4E4" stroke="#E4E4E4"/>
<path d="M1528.53 609.345L1430.92 596.23L1418.81 698.124L1528.53 609.345Z" fill="#C5C8CB" stroke="#C5C8CB"/>
<path d="M302.68 -102.903L236.09 -80.708L322.354 40.354L302.68 -102.903Z" fill="#8F939A" stroke="#8F939A"/>
<path d="M1506.59 239.097L1441.51 148.301L1435.46 259.274L1506.59 239.097Z" fill="#A9AAB2" stroke="#A9AAB2"/>
<path d="M1435.46 259.274L1441.51 148.301L1345.41 252.212L1435.46 259.274Z" fill="#A9ABB2" stroke="#A9ABB2"/>
<path d="M1339.36 14.1239L1337.85 -102.903L1261.42 23.2036L1339.36 14.1239Z" fill="#93969E" stroke="#93969E"/>
<path d="M40.1051 467.097L49.9422 595.221L149.07 501.398L40.1051 467.097Z" fill="#BABCBF" stroke="#BABCBF"/>
<path d="M141.503 717.292L58.2659 722.336L143.016 838.354L141.503 717.292Z" fill="#CDD1D4" stroke="#CDD1D4"/>
<path d="M54.4824 372.265L136.206 363.186L56.7525 259.274L54.4824 372.265Z" fill="#AFB1B6" stroke="#AFB1B6"/>
<path d="M49.9423 595.221L58.266 722.336L142.26 605.31L49.9423 595.221Z" fill="#C4C7CA" stroke="#C4C7CA"/>
<path d="M148.313 956.389L141.503 1063.33L215.66 1047.19L148.313 956.389Z" fill="#E3E3E3" stroke="#E3E3E3"/>
<path d="M56.7526 259.274L145.286 263.31V147.292L56.7526 259.274Z" fill="#A9AAB1" stroke="#A9AAB1"/>
<path d="M56.7526 259.274L136.206 363.186L145.286 263.31L56.7526 259.274Z" fill="#ADAEB4" stroke="#ADAEB4"/>
<path d="M1445.3 383.363L1506.59 351.08L1435.46 259.274L1445.3 383.363Z" fill="#AFB1B7" stroke="#AFB1B7"/>
<path d="M1528.53 609.345L1418.81 698.124L1521.72 717.292L1528.53 609.345Z" fill="#C9CCCF" stroke="#C9CCCF"/>
<path d="M54.4824 372.265L40.1051 467.097L136.206 363.186L54.4824 372.265Z" fill="#B2B5B9" stroke="#B2B5B9"/>
<path d="M-31.7814 716.283L45.402 817.168L58.2659 722.336L-31.7814 716.283Z" fill="#CDD0D3" stroke="#CDD0D3"/>
<path d="M1436.22 -89.7876L1337.85 -102.903L1339.36 14.1239L1436.22 -89.7876Z" fill="#8E929A" stroke="#8E929A"/>
<path d="M46.9154 1051.22L141.503 1063.33L148.313 956.389L46.9154 1051.22Z" fill="#E3E3E3" stroke="#E3E3E3"/>
<path d="M1521.72 717.292L1427.89 825.239L1508.1 817.168L1521.72 717.292Z" fill="#D2D6D9" stroke="#D2D6D9"/>
<path d="M1521.72 717.292L1418.81 698.124L1427.89 825.239L1521.72 717.292Z" fill="#CFD3D5" stroke="#CFD3D5"/>
<path d="M1508.1 817.168L1427.89 825.239L1506.59 928.142L1508.1 817.168Z" fill="#D8DDDF" stroke="#D8DDDF"/>
<path d="M133.179 16.1416L235.334 40.354L148.313 -78.6902L133.179 16.1416Z" fill="#94979F" stroke="#94979F"/>
<path d="M56.7526 144.266V259.274L145.286 147.292L56.7526 144.266Z" fill="#A7A8B0" stroke="#A7A8B0"/>
<path d="M54.4824 372.265L-34.8082 368.23L40.1051 467.097L54.4824 372.265Z" fill="#B2B5B9" stroke="#B2B5B9"/>
<path d="M1506.59 928.142L1427.89 825.239L1423.35 934.195L1506.59 928.142Z" fill="#DEDEDE" stroke="#DEDEDE"/>
<path d="M148.313 -78.6903L235.334 40.3539L236.09 -80.708L148.313 -78.6903Z" fill="#90949B" stroke="#90949B"/>
<path d="M-31.7814 716.283L58.2659 722.336L49.9422 595.221L-31.7814 716.283Z" fill="#C7CACD" stroke="#C7CACD"/>
<path d="M58.2659 722.336L45.402 817.168L143.016 838.354L58.2659 722.336Z" fill="#D0D4D7" stroke="#D0D4D7"/>
<path d="M1506.59 351.08V239.097L1435.46 259.274L1506.59 351.08Z" fill="#ADAFB5" stroke="#ADAFB5"/>
<path d="M1441.51 148.301L1436.22 28.2478L1343.9 137.204L1441.51 148.301Z" fill="#A4A4AD" stroke="#A4A4AD"/>
<path d="M1514.91 134.177L1436.22 28.2478L1441.51 148.301L1514.91 134.177Z" fill="#A3A4AC" stroke="#A3A4AC"/>
<path d="M1437.73 1065.35L1506.59 928.142L1423.35 934.195L1437.73 1065.35Z" fill="#E3E3E3" stroke="#E3E3E3"/>
<path d="M45.402 817.168L53.7257 946.301L143.016 838.354L45.402 817.168Z" fill="#D6DBDD" stroke="#D6DBDD"/>
<path d="M59.7794 32.2832L56.7526 144.265L145.286 147.292L59.7794 32.2832Z" fill="#A3A3AC" stroke="#A3A3AC"/>
<path d="M-47.6721 582.106L49.9422 595.221L40.1051 467.097L-47.6721 582.106Z" fill="#BCBFC2" stroke="#BCBFC2"/>
<path d="M133.179 16.1416L59.7794 32.2832L145.286 147.292L133.179 16.1416Z" fill="#9E9FA7" stroke="#9E9FA7"/>
<path d="M1437.73 1065.35H1523.99L1506.59 928.142L1437.73 1065.35Z" fill="#E6E6E6" stroke="#E6E6E6"/>
<path d="M1436.22 -89.7876L1339.36 14.1239L1436.22 28.2478V-89.7876Z" fill="#94979F" stroke="#94979F"/>
<path d="M1519.45 -89.7876H1436.22V28.2478L1519.45 -89.7876Z" fill="#90939B" stroke="#90939B"/>
<path d="M44.6453 -101.894L133.179 16.1416L148.313 -78.6903L44.6453 -101.894Z" fill="#8E9299" stroke="#8E9299"/>
<path d="M44.6453 -101.894L59.7793 32.2832L133.179 16.1416L44.6453 -101.894Z" fill="#92969E" stroke="#92969E"/>
<path d="M-34.8082 368.23L54.4824 372.265L56.7525 259.274L-34.8082 368.23Z" fill="#AFB1B6" stroke="#AFB1B6"/>
<path d="M-47.6721 582.106L-31.7814 716.283L49.9422 595.221L-47.6721 582.106Z" fill="#C3C6C9" stroke="#C3C6C9"/>
<path d="M45.402 817.168L-32.5381 944.283L53.7257 946.301L45.402 817.168Z" fill="#DCDCDC" stroke="#DCDCDC"/>
<path d="M-34.8082 368.23L56.7525 259.274L-34.0515 254.23L-34.8082 368.23Z" fill="#ACAEB4" stroke="#ACAEB4"/>
<path d="M-32.5381 944.283L46.9154 1051.22L53.7257 946.301L-32.5381 944.283Z" fill="#E0E0E0" stroke="#E0E0E0"/>
<path d="M53.7257 946.301L46.9154 1051.22L148.313 956.389L53.7257 946.301Z" fill="#E1E1E1" stroke="#E1E1E1"/>
<path d="M-34.0515 254.23L56.7525 259.274V144.266L-34.0515 254.23Z" fill="#A9AAB1" stroke="#A9AAB1"/>
<path d="M-47.6721 465.08V582.106L40.1051 467.097L-47.6721 465.08Z" fill="#B9BBBE" stroke="#B9BBBE"/>
<path d="M-34.8082 368.23L-47.6721 465.08L40.1051 467.097L-34.8082 368.23Z" fill="#B4B6BA" stroke="#B4B6BA"/>
<path d="M1514.91 134.177L1522.48 29.2567L1436.22 28.2478L1514.91 134.177Z" fill="#9FA0A9" stroke="#9FA0A9"/>
<path d="M-31.7814 716.283L-40.1051 820.195L45.402 817.168L-31.7814 716.283Z" fill="#CFD3D6" stroke="#CFD3D6"/>
<path d="M-38.5917 132.159L-34.0515 254.23L56.7525 144.265L-38.5917 132.159Z" fill="#A6A7AF" stroke="#A6A7AF"/>
<path d="M-40.1051 820.195L-32.5381 944.283L45.402 817.168L-40.1051 820.195Z" fill="#D5DADC" stroke="#D5DADC"/>
<path d="M1519.45 -89.7876L1436.22 28.2478L1522.48 29.2566L1519.45 -89.7876Z" fill="#9598A0" stroke="#9598A0"/>
<path d="M59.7793 32.2832L-38.5917 132.159L56.7525 144.265L59.7793 32.2832Z" fill="#A3A3AC" stroke="#A3A3AC"/>
<path d="M-33.2948 22.1947L-38.5917 132.159L59.7793 32.2832L-33.2948 22.1947Z" fill="#9D9EA7" stroke="#9D9EA7"/>
<path d="M-32.5381 944.283V1060.3L46.9154 1051.22L-32.5381 944.283Z" fill="#E2E2E2" stroke="#E2E2E2"/>
<path d="M44.6453 -101.894L-33.2948 22.1947L59.7793 32.2832L44.6453 -101.894Z" fill="#93969E" stroke="#93969E"/>
<path d="M44.6454 -101.894L-43.1318 -105.929L-33.2947 22.1947L44.6454 -101.894Z" fill="#8D9198" stroke="#8D9198"/>
</svg>
