<svg width="90" height="90" viewBox="0 0 90 90" fill="none" xmlns="http://www.w3.org/2000/svg">
<g filter="url(#filter0_f_52_2)">
<rect x="3" y="3" width="84" height="84" rx="18" fill="#D9D9D9"/>
</g>
<path d="M36.8986 41.8608H22.6258C19.6992 41.8608 17.3267 39.4046 17.3267 36.3749V21.5996C17.3267 18.5699 19.6992 16.1138 22.626 16.1138H36.8987C39.8254 16.1138 42.198 18.5698 42.198 21.5996V36.3749C42.1979 39.4046 39.8252 41.8608 36.8986 41.8608Z" fill="#C7EBFF"/>
<path d="M36.8984 43.0808H22.6258C19.0539 43.0808 16.1479 40.0725 16.1479 36.3749V21.5998C16.1479 17.902 19.0539 14.8938 22.6258 14.8938H36.8984C40.4704 14.8938 43.3763 17.902 43.3763 21.5998V36.3749C43.3763 40.0725 40.4704 43.0808 36.8984 43.0808ZM22.6258 17.334C20.3536 17.334 18.5051 19.2477 18.5051 21.5998V36.3749C18.5051 38.727 20.3536 40.6407 22.6258 40.6407H36.8984C39.1706 40.6407 41.0191 38.727 41.0191 36.3749V21.5998C41.0191 19.2477 39.1706 17.334 36.8984 17.334H22.6258Z" fill="black"/>
<path d="M21.6757 36.9531C21.0247 36.9531 20.4971 36.4068 20.4971 35.733V32.9268C20.4971 32.2531 21.0247 31.7068 21.6757 31.7068C22.3266 31.7068 22.8543 32.2531 22.8543 32.9268V35.733C22.8543 36.4068 22.3266 36.9531 21.6757 36.9531Z" fill="black"/>
<path d="M21.6757 29.6326C21.0247 29.6326 20.4971 29.0862 20.4971 28.4125V22.6903C20.4971 20.8738 21.9246 19.396 23.6793 19.396H26.2839C26.9349 19.396 27.4625 19.9424 27.4625 20.6161C27.4625 21.2898 26.9349 21.8362 26.2839 21.8362H23.6793C23.2243 21.8362 22.8543 22.2194 22.8543 22.6903V28.4125C22.8543 29.0862 22.3266 29.6326 21.6757 29.6326Z" fill="black"/>
<path d="M68.8352 41.8608H54.5625C51.6358 41.8608 49.2632 39.4047 49.2632 36.3749V21.5996C49.2632 18.5699 51.6357 16.1138 54.5625 16.1138H68.8352C71.7619 16.1138 74.1345 18.5698 74.1345 21.5996V36.3749C74.1345 39.4046 71.762 41.8608 68.8352 41.8608Z" fill="#074CFE"/>
<path d="M68.8352 43.0808H54.5626C50.9906 43.0808 48.0847 40.0726 48.0847 36.3749V21.5998C48.0847 17.902 50.9906 14.8938 54.5626 14.8938H68.8352C72.4072 14.8938 75.3131 17.902 75.3131 21.5998V36.3749C75.3131 40.0725 72.4072 43.0808 68.8352 43.0808ZM54.5626 17.334C52.2904 17.334 50.4419 19.2477 50.4419 21.5998V36.3749C50.4419 38.727 52.2904 40.6407 54.5626 40.6407H68.8352C71.1074 40.6407 72.9559 38.727 72.9559 36.3749V21.5998C72.9559 19.2477 71.1074 17.334 68.8352 17.334H54.5626Z" fill="black"/>
<path d="M36.8986 74.6295H22.6258C19.6992 74.6295 17.3267 72.1735 17.3267 69.1436V54.3684C17.3267 51.3386 19.6992 48.8825 22.626 48.8825H36.8987C39.8254 48.8825 42.198 51.3385 42.198 54.3684V69.1436C42.1979 72.1735 39.8252 74.6295 36.8986 74.6295Z" fill="#074CFE"/>
<path d="M36.8984 75.8495H22.6258C19.0539 75.8495 16.1479 72.8413 16.1479 69.1436V54.3685C16.1479 50.6708 19.0539 47.6625 22.6258 47.6625H36.8984C40.4704 47.6625 43.3763 50.6708 43.3763 54.3685V69.1436C43.3763 72.8413 40.4704 75.8495 36.8984 75.8495ZM22.6258 50.1027C20.3536 50.1027 18.5051 52.0164 18.5051 54.3685V69.1436C18.5051 71.4957 20.3536 73.4094 22.6258 73.4094H36.8984C39.1706 73.4094 41.0191 71.4957 41.0191 69.1436V54.3685C41.0191 52.0164 39.1706 50.1027 36.8984 50.1027H22.6258Z" fill="black"/>
<path d="M68.8352 74.6295H54.5625C51.6358 74.6295 49.2632 72.1735 49.2632 69.1436V54.3684C49.2632 51.3386 51.6357 48.8825 54.5625 48.8825H68.8352C71.7619 48.8825 74.1345 51.3385 74.1345 54.3684V69.1436C74.1345 72.1735 71.762 74.6295 68.8352 74.6295Z" fill="#074CFE"/>
<path d="M68.8352 75.8495H54.5626C50.9906 75.8495 48.0847 72.8413 48.0847 69.1436V54.3685C48.0847 50.6708 50.9906 47.6625 54.5626 47.6625H68.8352C72.4072 47.6625 75.3131 50.6708 75.3131 54.3685V69.1436C75.3131 72.8413 72.4072 75.8495 68.8352 75.8495ZM54.5626 50.1027C52.2904 50.1027 50.4419 52.0164 50.4419 54.3685V69.1436C50.4419 71.4957 52.2904 73.4094 54.5626 73.4094H68.8352C71.1074 73.4094 72.9559 71.4957 72.9559 69.1436V54.3685C72.9559 52.0164 71.1074 50.1027 68.8352 50.1027H54.5626Z" fill="black"/>
<defs>
<filter id="filter0_f_52_2" x="0" y="0" width="90" height="90" filterUnits="userSpaceOnUse" color-interpolation-filters="sRGB">
<feFlood flood-opacity="0" result="BackgroundImageFix"/>
<feBlend mode="normal" in="SourceGraphic" in2="BackgroundImageFix" result="shape"/>
<feGaussianBlur stdDeviation="1.5" result="effect1_foregroundBlur_52_2"/>
</filter>
</defs>
</svg>
