<svg width="90" height="90" viewBox="0 0 90 90" fill="none" xmlns="http://www.w3.org/2000/svg">
<g filter="url(#filter0_f_7_54)">
<rect x="3" y="3" width="84" height="84" rx="18" fill="#D9D9D9"/>
</g>
<path d="M36.8983 41.8608H22.6256C19.6989 41.8608 17.3264 39.4046 17.3264 36.3749V21.5996C17.3264 18.5699 19.6989 16.1138 22.6257 16.1138H36.8984C39.8251 16.1138 42.1977 18.5698 42.1977 21.5996V36.3749C42.1976 39.4046 39.825 41.8608 36.8983 41.8608Z" fill="#E5E5E5"/>
<path d="M36.8983 43.0808H22.6257C19.0538 43.0808 16.1478 40.0725 16.1478 36.3749V21.5998C16.1478 17.902 19.0538 14.8938 22.6257 14.8938H36.8983C40.4703 14.8938 43.3762 17.902 43.3762 21.5998V36.3749C43.3762 40.0725 40.4703 43.0808 36.8983 43.0808ZM22.6257 17.334C20.3535 17.334 18.505 19.2477 18.505 21.5998V36.3749C18.505 38.727 20.3535 40.6407 22.6257 40.6407H36.8983C39.1705 40.6407 41.019 38.727 41.019 36.3749V21.5998C41.019 19.2477 39.1705 17.334 36.8983 17.334H22.6257Z" fill="black"/>
<path d="M21.6754 36.9531C21.0245 36.9531 20.4968 36.4068 20.4968 35.733V32.9268C20.4968 32.2531 21.0245 31.7068 21.6754 31.7068C22.3264 31.7068 22.854 32.2531 22.854 32.9268V35.733C22.854 36.4068 22.3264 36.9531 21.6754 36.9531Z" fill="black"/>
<path d="M21.6754 29.6326C21.0245 29.6326 20.4968 29.0862 20.4968 28.4125V22.6903C20.4968 20.8738 21.9243 19.396 23.679 19.396H26.2837C26.9346 19.396 27.4623 19.9424 27.4623 20.6161C27.4623 21.2898 26.9346 21.8362 26.2837 21.8362H23.679C23.2241 21.8362 22.854 22.2194 22.854 22.6903V28.4125C22.854 29.0862 22.3264 29.6326 21.6754 29.6326Z" fill="black"/>
<path d="M68.8352 41.8608H54.5624C51.6358 41.8608 49.2632 39.4047 49.2632 36.3749V21.5996C49.2632 18.5699 51.6357 16.1138 54.5624 16.1138H68.8352C71.7618 16.1138 74.1345 18.5698 74.1345 21.5996V36.3749C74.1345 39.4046 71.762 41.8608 68.8352 41.8608Z" fill="black" fill-opacity="0.61"/>
<path d="M68.8352 43.0808H54.5626C50.9906 43.0808 48.0847 40.0726 48.0847 36.3749V21.5998C48.0847 17.902 50.9906 14.8938 54.5626 14.8938H68.8352C72.4071 14.8938 75.3131 17.902 75.3131 21.5998V36.3749C75.3131 40.0725 72.4071 43.0808 68.8352 43.0808ZM54.5626 17.334C52.2904 17.334 50.4419 19.2477 50.4419 21.5998V36.3749C50.4419 38.727 52.2904 40.6407 54.5626 40.6407H68.8352C71.1074 40.6407 72.9559 38.727 72.9559 36.3749V21.5998C72.9559 19.2477 71.1074 17.334 68.8352 17.334H54.5626Z" fill="black"/>
<path d="M36.8983 74.6295H22.6256C19.6989 74.6295 17.3264 72.1735 17.3264 69.1436V54.3684C17.3264 51.3386 19.6989 48.8825 22.6257 48.8825H36.8985C39.8251 48.8825 42.1977 51.3385 42.1977 54.3684V69.1436C42.1976 72.1735 39.825 74.6295 36.8983 74.6295Z" fill="black" fill-opacity="0.61"/>
<path d="M36.8983 75.8495H22.6257C19.0538 75.8495 16.1478 72.8413 16.1478 69.1436V54.3685C16.1478 50.6708 19.0538 47.6625 22.6257 47.6625H36.8983C40.4703 47.6625 43.3762 50.6708 43.3762 54.3685V69.1436C43.3762 72.8413 40.4703 75.8495 36.8983 75.8495ZM22.6257 50.1027C20.3535 50.1027 18.505 52.0164 18.505 54.3685V69.1436C18.505 71.4957 20.3535 73.4094 22.6257 73.4094H36.8983C39.1705 73.4094 41.019 71.4957 41.019 69.1436V54.3685C41.019 52.0164 39.1705 50.1027 36.8983 50.1027H22.6257Z" fill="black"/>
<path d="M68.8352 74.6295H54.5624C51.6358 74.6295 49.2632 72.1735 49.2632 69.1436V54.3684C49.2632 51.3386 51.6357 48.8825 54.5624 48.8825H68.8352C71.7618 48.8825 74.1345 51.3385 74.1345 54.3684V69.1436C74.1345 72.1735 71.762 74.6295 68.8352 74.6295Z" fill="black" fill-opacity="0.61"/>
<path d="M68.8352 75.8495H54.5626C50.9906 75.8495 48.0847 72.8413 48.0847 69.1436V54.3685C48.0847 50.6708 50.9906 47.6625 54.5626 47.6625H68.8352C72.4071 47.6625 75.3131 50.6708 75.3131 54.3685V69.1436C75.3131 72.8413 72.4071 75.8495 68.8352 75.8495ZM54.5626 50.1027C52.2904 50.1027 50.4419 52.0164 50.4419 54.3685V69.1436C50.4419 71.4957 52.2904 73.4094 54.5626 73.4094H68.8352C71.1074 73.4094 72.9559 71.4957 72.9559 69.1436V54.3685C72.9559 52.0164 71.1074 50.1027 68.8352 50.1027H54.5626Z" fill="black"/>
<defs>
<filter id="filter0_f_7_54" x="0" y="0" width="90" height="90" filterUnits="userSpaceOnUse" color-interpolation-filters="sRGB">
<feFlood flood-opacity="0" result="BackgroundImageFix"/>
<feBlend mode="normal" in="SourceGraphic" in2="BackgroundImageFix" result="shape"/>
<feGaussianBlur stdDeviation="1.5" result="effect1_foregroundBlur_7_54"/>
</filter>
</defs>
</svg>
