<svg width="70" height="70" viewBox="0 0 70 70" fill="none" xmlns="http://www.w3.org/2000/svg">
<g filter="url(#filter0_f_52_3)">
<rect x="3" y="3" width="64" height="64" rx="18" fill="#D9D9D9"/>
</g>
<path d="M28.8273 32.6082H17.9528C15.723 32.6082 13.9153 30.7369 13.9153 28.4285V17.1712C13.9153 14.8628 15.723 12.9915 17.9529 12.9915H28.8274C31.0572 12.9915 32.8649 14.8627 32.8649 17.1712V28.4285C32.8648 30.7369 31.0571 32.6082 28.8273 32.6082Z" fill="#E5E5E5"/>
<path d="M28.8273 33.5377H17.9529C15.2314 33.5377 13.0174 31.2456 13.0174 28.4284V17.1712C13.0174 14.3539 15.2314 12.0619 17.9529 12.0619H28.8273C31.5488 12.0619 33.7628 14.3539 33.7628 17.1712V28.4284C33.7628 31.2456 31.5488 33.5377 28.8273 33.5377ZM17.9529 13.9211C16.2217 13.9211 14.8133 15.3791 14.8133 17.1712V28.4284C14.8133 30.2205 16.2217 31.6785 17.9529 31.6785H28.8273C30.5585 31.6785 31.9669 30.2205 31.9669 28.4284V17.1712C31.9669 15.3791 30.5585 13.9211 28.8273 13.9211C28.8273 13.9211 17.9529 13.9211 17.9529 13.9211Z" fill="black"/>
<path d="M17.2289 28.8691C16.733 28.8691 16.3309 28.4528 16.3309 27.9395V25.8014C16.3309 25.2881 16.733 24.8718 17.2289 24.8718C17.7249 24.8718 18.1269 25.2881 18.1269 25.8014V27.9395C18.1269 28.4528 17.7249 28.8691 17.2289 28.8691Z" fill="black"/>
<path d="M17.2289 23.2914C16.733 23.2914 16.3309 22.8752 16.3309 22.3619V18.0021C16.3309 16.6181 17.4186 15.4922 18.7555 15.4922H20.74C21.2359 15.4922 21.638 15.9085 21.638 16.4218C21.638 16.9351 21.2359 17.3514 20.74 17.3514H18.7555C18.4088 17.3514 18.1269 17.6434 18.1269 18.0021V22.3619C18.1269 22.8752 17.7249 23.2914 17.2289 23.2914Z" fill="black"/>
<path d="M53.1601 32.6082H42.2857C40.0558 32.6082 38.2481 30.7369 38.2481 28.4285V17.1712C38.2481 14.8628 40.0557 12.9915 42.2857 12.9915H53.1601C55.39 12.9915 57.1977 14.8627 57.1977 17.1712V28.4285C57.1977 30.7369 55.3901 32.6082 53.1601 32.6082Z" fill="black" fill-opacity="0.61"/>
<path d="M53.1601 33.5377H42.2857C39.5643 33.5377 37.3502 31.2457 37.3502 28.4284V17.1712C37.3502 14.3539 39.5643 12.0619 42.2857 12.0619H53.1601C55.8816 12.0619 58.0957 14.3539 58.0957 17.1712V28.4284C58.0957 31.2456 55.8816 33.5377 53.1601 33.5377ZM42.2857 13.9211C40.5545 13.9211 39.1462 15.3791 39.1462 17.1712V28.4284C39.1462 30.2205 40.5545 31.6785 42.2857 31.6785H53.1601C54.8913 31.6785 56.2997 30.2205 56.2997 28.4284V17.1712C56.2997 15.3791 54.8913 13.9211 53.1601 13.9211C53.1601 13.9211 42.2857 13.9211 42.2857 13.9211Z" fill="black"/>
<path d="M28.8273 57.5748H17.9528C15.723 57.5748 13.9153 55.7035 13.9153 53.3951V42.1377C13.9153 39.8294 15.723 37.958 17.9529 37.958H28.8274C31.0572 37.958 32.8649 39.8293 32.8649 42.1377V53.3951C32.8648 55.7035 31.0571 57.5748 28.8273 57.5748Z" fill="black" fill-opacity="0.61"/>
<path d="M28.8273 58.5044H17.9529C15.2314 58.5044 13.0174 56.2124 13.0174 53.3951V42.1379C13.0174 39.3206 15.2314 37.0286 17.9529 37.0286H28.8273C31.5488 37.0286 33.7628 39.3206 33.7628 42.1379V53.3951C33.7628 56.2124 31.5488 58.5044 28.8273 58.5044ZM17.9529 38.8877C16.2217 38.8877 14.8133 40.3458 14.8133 42.1379V53.3951C14.8133 55.1872 16.2217 56.6452 17.9529 56.6452H28.8273C30.5585 56.6452 31.9669 55.1872 31.9669 53.3951V42.1379C31.9669 40.3458 30.5585 38.8877 28.8273 38.8877H17.9529V38.8877Z" fill="black"/>
<path d="M53.1601 57.5748H42.2857C40.0558 57.5748 38.2481 55.7035 38.2481 53.3951V42.1377C38.2481 39.8294 40.0557 37.958 42.2857 37.958H53.1601C55.39 37.958 57.1977 39.8293 57.1977 42.1377V53.3951C57.1977 55.7035 55.3901 57.5748 53.1601 57.5748Z" fill="black" fill-opacity="0.61"/>
<path d="M53.1601 58.5044H42.2857C39.5643 58.5044 37.3502 56.2124 37.3502 53.3951V42.1379C37.3502 39.3206 39.5643 37.0286 42.2857 37.0286H53.1601C55.8816 37.0286 58.0957 39.3206 58.0957 42.1379V53.3951C58.0957 56.2124 55.8816 58.5044 53.1601 58.5044ZM42.2857 38.8877C40.5545 38.8877 39.1462 40.3458 39.1462 42.1379V53.3951C39.1462 55.1872 40.5545 56.6452 42.2857 56.6452H53.1601C54.8913 56.6452 56.2997 55.1872 56.2997 53.3951V42.1379C56.2997 40.3458 54.8913 38.8877 53.1601 38.8877H42.2857V38.8877Z" fill="black"/>
<defs>
<filter id="filter0_f_52_3" x="0" y="0" width="70" height="70" filterUnits="userSpaceOnUse" color-interpolation-filters="sRGB">
<feFlood flood-opacity="0" result="BackgroundImageFix"/>
<feBlend mode="normal" in="SourceGraphic" in2="BackgroundImageFix" result="shape"/>
<feGaussianBlur stdDeviation="1.5" result="effect1_foregroundBlur_52_3"/>
</filter>
</defs>
</svg>
