<svg width="84" height="70" viewBox="0 0 84 70" fill="none" xmlns="http://www.w3.org/2000/svg">
<path d="M1.61848 55.8246C5.16707 55.3913 8.76545 55.858 12.314 55.275C14.0965 54.9919 15.7292 54.3921 17.3452 53.759C13.347 51.1936 9.74828 48.2614 6.39997 44.7463C5.20051 43.4967 6.06667 41.3976 7.81606 41.3478C9.24887 41.4143 10.6482 41.298 12.0142 41.0145C8.5321 36.5998 5.83332 31.8517 3.73426 26.5207C3.16797 25.0879 4.83377 23.6387 6.18334 24.0716C6.96626 24.3882 7.7659 24.6048 8.58226 24.7713C6.10011 18.807 5.58361 12.793 6.96626 6.19561C7.28285 4.67957 9.28195 4.31319 10.2982 5.31274C18.2615 13.1423 28.3239 16.9075 39.086 18.7067C38.1362 11.3431 43.3677 3.51318 50.2312 0.947428C55.929 -1.16835 63.5757 0.281182 67.4075 5.07902C69.9732 3.46302 73.5214 2.92981 76.3703 2.43003C77.8697 2.17997 79.3192 3.64621 78.4363 5.12882C77.4033 6.8615 76.4205 8.71048 75.3377 10.4766C77.5367 9.82671 79.8026 9.42689 82.0681 9.14374C83.7009 8.92711 84.6837 11.4427 83.4344 12.4423C80.7854 14.558 78.1532 16.9737 75.3377 18.9063C75.2545 37.6149 69.79 53.3086 53.0804 63.954C39.1525 72.8507 13.2634 71.3514 1.15215 59.2398H1.13543C0.602214 59.1064 0.319069 58.7065 0.219114 58.2737C-0.247222 57.574 0.0857192 56.7078 0.702169 56.3745C0.935519 56.091 1.23538 55.8744 1.61848 55.8246Z" fill="#3FA9F5"/>
</svg>
