<svg width="65" height="54" viewBox="0 0 65 54" fill="none" xmlns="http://www.w3.org/2000/svg">
<path d="M1.2524 43.1976C3.99833 42.8623 6.78279 43.2235 9.52872 42.7723C10.908 42.5532 12.1714 42.0891 13.4219 41.5992C10.3281 39.6141 7.54332 37.3452 4.95236 34.6251C4.0242 33.6581 4.69444 32.0339 6.04814 31.9953C7.15687 32.0468 8.23971 31.9568 9.29668 31.7374C6.60222 28.3212 4.51388 24.6472 2.88961 20.5219C2.45141 19.4132 3.74041 18.2918 4.78473 18.6268C5.39056 18.8718 6.00933 19.0394 6.64104 19.1682C4.72032 14.5531 4.32065 9.89935 5.39056 4.79423C5.63554 3.62109 7.18246 3.33759 7.96886 4.11105C14.131 10.1696 21.9173 13.0832 30.2451 14.4754C29.5102 8.77741 33.5584 2.71853 38.8694 0.733129C43.2784 -0.904079 49.1955 0.217581 52.1605 3.9302C54.1459 2.67972 56.8916 2.26711 59.0961 1.88038C60.2563 1.68688 61.3779 2.82148 60.6948 3.96873C59.8954 5.30949 59.1349 6.74025 58.297 8.10689C59.9987 7.604 61.752 7.29462 63.5051 7.07552C64.7685 6.90789 65.529 8.85448 64.5624 9.62794C62.5125 11.2651 60.4757 13.1344 58.297 14.6298C58.2326 29.1068 54.0042 41.2507 41.0742 49.4882C30.2966 56.3726 10.2634 55.2124 0.891544 45.8403H0.878606C0.465999 45.7371 0.246899 45.4277 0.169552 45.0927C-0.191303 44.5513 0.0663304 43.881 0.543345 43.6231C0.723914 43.4038 0.955952 43.2361 1.2524 43.1976Z" fill="#ADAFB5"/>
</svg>
